<?xml version="1.0" encoding="utf-8"?>
<!-- Generator: Adobe Illustrator 19.2.1, SVG Export Plug-In . SVG Version: 6.00 Build 0)  -->
<svg version="1.1" id="layer" xmlns="http://www.w3.org/2000/svg" xmlns:xlink="http://www.w3.org/1999/xlink" x="0px" y="0px"
	 viewBox="0 0 652 652" style="enable-background:new 0 0 652 652;" xml:space="preserve">
<style type="text/css">
	.st0{fill:#007549;}
	.st1{fill:#C9AB5C;}
	.st2{fill:#9D1531;}
</style>
<g>
	<path class="st0" d="M425.1,248.6c0.7,0,1-0.7,1-1c0-0.6-0.7-1.3-1-1l-5.5,0.6v1C421.7,247.6,423.4,248.2,425.1,248.6"/>
	<path class="st0" d="M422.9,251.8c0.7,0,1-0.7,1-1c0-0.6-0.3-1-1-1l-5.5,1v1C419.5,251,421.1,251.5,422.9,251.8"/>
	<path class="st0" d="M420.9,255.1c0.7,0,1-0.7,1-1c0-0.7-0.7-1-1.3-1l-5.5,1.3l0.3,0.7C417.6,254.2,419.2,254.8,420.9,255.1"/>
	<path class="st0" d="M418.6,258.7c0.7,0,1-0.3,1-1c-0.3-0.7-0.7-1-1.3-1l-5.5,1.6l0.3,0.7C415,258.4,417,258.6,418.6,258.7"/>
	<path class="st0" d="M416.7,262.2c0.3,0,0.7-0.6,0.7-1.3c0-0.3-0.7-0.7-1.3-0.7l-5.2,2.3l0.3,0.7
		C413.1,262.4,414.9,262.1,416.7,262.2"/>
	<path class="st0" d="M414.1,266.5c0.3,0,0.7-0.7,0.7-1c0-0.6-0.7-1-1.3-1l-5.2,2.3l0.3,0.7C410.5,266.6,412.3,266.3,414.1,266.5"/>
	<path class="st0" d="M412.4,270.4c0.7,0,1-0.7,0.7-1.3c0-0.3-0.7-0.6-1.3-0.6l-5.2,2l0.3,1C408.9,270.5,410.6,270.2,412.4,270.4"/>
	<path class="st0" d="M411.1,274.3c0.7-0.3,1-0.7,0.7-1.3c0-0.7-0.7-1-1.3-0.7l-5.2,2l0.3,0.6C407.6,274.3,409.2,274.1,411.1,274.3"
		/>
	<path class="st0" d="M409.8,277.9c0.3-0.3,0.7-1,0.3-1.6c0-0.3-0.6-0.7-1.3-0.7l-4.9,2.6l0.3,0.7
		C406.3,278,407.9,277.7,409.8,277.9"/>
	<path class="st0" d="M408.2,282.1c0.7,0,1-0.6,0.7-1.3c0-0.3-0.7-0.7-1.3-0.3l-4.9,2.6l0.3,0.6
		C404.7,282.8,406.6,282.5,408.2,282.1"/>
	<path class="st0" d="M406.9,286.7c0.7,0,1-0.7,0.7-1.3c-0.3-0.3-0.7-0.7-1.3-0.7l-4.9,2.9l0.3,0.7
		C403.4,287.4,405.3,287,406.9,286.7"/>
	<path class="st0" d="M428.1,245.3c0.3,0,1-0.3,1-1c0-0.7-0.7-1-1.3-1l-5.5,1v0.7C424.5,244.3,426.3,245,428.1,245.3"/>
	<path class="st0" d="M430.7,242.1c0.3,0,1-0.3,1-1c-0.3-0.7-0.7-1-1.3-1l-5.5,1v0.7C427,241.4,428.8,241.4,430.7,242.1"/>
	<path class="st0" d="M433.6,239.1c0.7,0,1-0.7,1-1.3c0-0.3-0.3-1-1-1l-5.5,1v0.6C430.2,238,431.9,238.7,433.6,239.1"/>
	<path class="st0" d="M435.9,235.5c0.7-0.3,1-0.7,1-1.3c0-0.7-0.7-1-1.3-1l-5.2,1.6v1C432.4,234.8,434.1,235.3,435.9,235.5"/>
	<path class="st0" d="M428.7,231c0-0.6-0.7-1-1.3-0.6c-0.7,0-1,0.6-0.7,1.3l2,5.2l0.7-0.3C428.6,234.6,428.7,232.8,428.7,231"/>
	<path class="st0" d="M425.8,233.3c0-0.3-0.7-0.7-1.3-0.7c-0.3,0-0.7,0.7-0.7,1.3l2,5.2h0.7C425.8,237.1,425.6,235.1,425.8,233.3"/>
	<path class="st0" d="M422.9,236.2c0-0.6-0.7-1-1.3-0.6c-0.7,0-1,0.6-0.7,1.3l2.6,6.2h0.7C423.1,240.7,423,238.3,422.9,236.2"/>
	<path class="st0" d="M420.3,239.1c-0.3-0.7-1-1-1.3-1c-0.7,0.3-1,0.7-1,1.3l2.6,6.5l0.7-0.3C419.9,243.4,420.2,241.1,420.3,239.1"
		/>
	<path class="st0" d="M417.7,241.7c0-0.7-0.7-0.7-1.3-0.7c-0.3,0.3-0.7,0.7-0.7,1.3l2.9,6.2h0.7C418.3,246.2,417.5,244,417.7,241.7"
		/>
	<path class="st0" d="M414.7,245.3c-0.3-0.3-0.7-0.6-1.3-0.6c-0.7,0.3-1,1-0.7,1.6l2.9,6.2l0.7-0.3
		C415.3,249.8,414.6,247.7,414.7,245.3"/>
	<path class="st0" d="M412.1,249.2c0-0.6-0.7-0.6-1.3-0.6c-0.3,0.3-0.7,1-0.7,1.3l2.9,6.2l0.7-0.3
		C412.7,253.5,412,251.4,412.1,249.2"/>
	<path class="st0" d="M409.8,252.5c0-0.3-0.7-0.7-1.3-0.3c-0.3,0-0.6,0.6-0.3,1.3l3.3,5.9l0.7-0.3
		C411,256.8,410.1,254.7,409.8,252.5"/>
	<path class="st0" d="M408.1,256c-0.3-0.7-1-0.7-1.3-0.7c-0.6,0.3-1,1-0.6,1.6l3.3,5.9l1-0.3C409,260.3,408,258.3,408.1,256"/>
	<path class="st0" d="M405.6,259.6c-0.3-0.3-1-0.6-1.3-0.3c-0.7,0.3-0.7,1-0.3,1.6l3.9,5.5l0.6-0.3C407.2,264,406,261.9,405.6,259.6
		"/>
	<path class="st0" d="M404,263.6c-0.3-0.3-1-0.6-1.3-0.3c-0.7,0.3-1,1-0.7,1.3l3.9,5.9l0.7-0.3C405.3,267.9,404.3,265.8,404,263.6"
		/>
	<path class="st0" d="M402.4,266.5c-0.3-0.3-1-0.7-1.3-0.3c-0.7,0.3-0.7,1-0.3,1.6l4.2,5.2l0.7-0.3
		C404,270.6,402.8,268.7,402.4,266.5"/>
	<path class="st0" d="M400.7,269.7c-0.3-0.7-1-0.7-1.3-0.3c-0.7,0.3-0.7,1-0.3,1.3l4.6,5.2l0.7-0.3
		C402.5,273.9,401.6,271.6,400.7,269.7"/>
	<path class="st0" d="M399.7,273c-0.3-0.3-1-0.3-1.3,0c-0.7,0.3-0.7,1-0.3,1.3l4.2,5.2l0.7-0.3C401.4,277.1,400.2,275.3,399.7,273"
		/>
	<path class="st0" d="M398.1,277.6c-0.3-0.7-1-0.7-1.6-0.3c-0.3,0.3-0.3,1,0,1.6l4.6,4.9l0.7-0.6C399.9,281.5,399,279.3,398.1,277.6
		"/>
	<path class="st0" d="M396.8,281.5c-0.3-0.3-1-0.3-1.3,0c-0.3,0.3-0.7,1-0.3,1.3l4.9,5.2l0.7-0.7
		C399.1,285.5,397.7,283.7,396.8,281.5"/>
	<path class="st0" d="M395.8,286.7c-0.7-0.3-1.3-0.7-1.6,0c-0.3,0.3-0.3,1,0,1.3l4.9,4.9l0.6-0.7
		C397.9,290.4,396.3,288.9,395.8,286.7"/>
	<path class="st0" d="M395.2,292.2c-0.3-0.3-1-0.6-1.6,0c-0.3,0.3-0.3,1,0,1.3l4.9,4.9l0.7-0.6C397.2,296.2,396.1,293.9,395.2,292.2
		"/>
	<path class="st0" d="M394.2,298.4c-0.3-0.3-1-0.3-1.6,0c-0.3,0.3-0.3,1,0,1.3l4.9,4.9l0.6-0.3C396.3,302.3,394.7,300.7,394.2,298.4
		"/>
	<path class="st0" d="M393.6,304.6c-0.3-0.3-1-0.7-1.3,0c-0.3,0.3-0.6,1,0,1.3l4.9,4.6l0.7-0.3C396,308.4,394.5,306.7,393.6,304.6"
		/>
	<path class="st0" d="M393.6,310.8c-0.7-0.7-1.3-0.7-1.6-0.3c-0.3,0.6-0.3,1.3,0,1.6l5.2,4.2l0.7-0.3
		C395.7,314.6,394.6,312.5,393.6,310.8"/>
	<path class="st0" d="M393.2,316.3c-0.7-0.3-1.3-0.3-1.6,0c-0.3,0.6-0.3,1.3,0.3,1.6l5.9,3.6l0.3-0.7
		C396,319.7,394.6,317.9,393.2,316.3"/>
	<path class="st0" d="M393.6,322.2c-0.7-0.3-1.3,0-1.6,0.3c-0.3,0.6,0,1.3,0.3,1.6l6.2,2.9l0.3-0.6
		C396.4,325.2,394.6,324.3,393.6,322.2"/>
	<path class="st0" d="M394.2,328c-0.7-0.3-1.3,0-1.6,0.3c-0.3,0.7,0,1.3,0.3,1.6l6.2,2.9l0.3-0.6C397.1,331.1,395.3,330.1,394.2,328
		"/>
	<path class="st0" d="M394.9,333.9c-0.7-0.3-1.3,0-1.6,0.3c0,0.7,0,1.3,0.7,1.3l6.5,2.3l0.3-0.6
		C398.5,336.3,396.3,335.4,394.9,333.9"/>
	<path class="st0" d="M395.5,338.5c-0.7-0.3-1.3,0-1.3,0.7c-0.3,0.3,0,1,0.3,1.3l6.5,2.3l0.3-0.7
		C399.1,341.1,397.1,340.1,395.5,338.5"/>
	<path class="st0" d="M396.5,342.7c-0.7-0.3-1,0-1.3,0.6c-0.3,0.3,0,1,0.3,1.3l6.5,2.3l0.3-0.7C400.1,345.3,398.1,344.4,396.5,342.7
		"/>
	<path class="st0" d="M397.5,346.3c-0.7-0.3-1.3,0-1.6,0.3c0,0.7,0,1.3,0.3,1.6l7.5,3.9l0.7-0.7C401.8,349.9,399,348.5,397.5,346.3"
		/>
	<path class="st0" d="M405.9,291.6c0.7-0.3,0.7-1,0.7-1.6c-0.3-0.3-1-0.7-1.6-0.3l-5.9,3.6l0.3,0.7
		C401.5,292.3,403.9,292,405.9,291.6"/>
	<path class="st0" d="M405,296.4c0.3-0.3,0.7-1,0.3-1.3c-0.3-0.7-1-0.7-1.3-0.3l-5.5,4.2l0.3,0.6C400.8,298.1,402.7,296.9,405,296.4
		"/>
	<path class="st0" d="M404.6,302c0.7-0.3,0.7-1,0.3-1.3c-0.3-0.7-1-0.7-1.3-0.3l-5.5,4.2l0.3,0.6C400.5,303.7,402.4,302.4,404.6,302
		"/>
	<path class="st0" d="M404,307.5c0.7-0.3,0.7-1,0.3-1.6c-0.3-0.3-1-0.3-1.6,0l-4.9,4.6l0.3,0.6C399.9,309.3,402.2,308.4,404,307.5"
		/>
	<path class="st0" d="M403.7,313.1c0.7-0.3,0.7-1,0.3-1.3c-0.3-0.7-1-0.7-1.3-0.3l-5.2,4.9l0.7,0.7
		C399.8,315.4,401.8,314.2,403.7,313.1"/>
	<path class="st0" d="M404,317.9c0.7-0.3,0.7-1,0-1.6c-0.3-0.3-1-0.3-1.3,0l-4.6,5.2l0.6,0.7C400.2,320.1,402.3,318.9,404,317.9"/>
	<path class="st0" d="M404.3,322.5c0.3-0.3,0.3-1,0-1.6c-0.3-0.3-1-0.3-1.3,0l-4.6,5.2l0.3,0.7C400.6,324.7,402,323.1,404.3,322.5"
		/>
	<path class="st0" d="M404.6,327.7c0.3-0.3,0.3-1,0-1.3c-0.3-0.6-1-0.3-1.6,0l-3.9,5.5l0.6,0.3C401.1,330.3,403,329,404.6,327.7"/>
	<path class="st0" d="M405.6,332.3c0.3-0.7,0.3-1.3,0-1.6c-0.7-0.3-1.3-0.3-1.6,0.3l-3.6,5.9l0.7,0.3
		C402.2,335.1,404.1,333.6,405.6,332.3"/>
	<path class="st0" d="M408.2,342.7c0.3-0.7,0.3-1.3-0.3-1.6c-0.3-0.3-1-0.3-1.3,0.3l-3.6,5.9l0.7,0.3
		C405,345.4,406.2,343.7,408.2,342.7"/>
	<path class="st0" d="M410.5,347.6c0.3-0.7,0-1.3-0.3-1.6c-0.7-0.3-1.3,0-1.6,0.3l-3.3,6.8l0.7,0.3
		C407.2,350.9,408.3,348.8,410.5,347.6"/>
	<path class="st0" d="M406.9,336.8c0.3-0.7,0-1.3-0.3-1.6c-0.7-0.3-1.3,0-1.3,0.3l-3.6,6.8l0.7,0.3
		C403.4,340.3,405.3,338.4,406.9,336.8"/>
	<path class="st0" d="M433,231.3c-19.5,19.2-31.9,42.3-35.5,67.4c-3.6,25.4,2,51.1,16,74.3c0.3,0.6,1,0.6,1.6,0.3
		c0.6-0.3,0.6-1,0.3-1.3c-13.7-22.8-19.2-47.9-15.6-73c3.6-24.4,15.3-47.6,34.5-66.1c0.7-0.3,0.7-1,0-1.6
		C433.9,231,433.3,231,433,231.3"/>
	<path class="st0" d="M586,248.6c-0.7,0-1-0.7-1-1c0-0.6,0.3-1.3,1-1l5.5,0.6v1C589.4,247.6,587.8,248.2,586,248.6"/>
	<path class="st0" d="M588.3,251.8c-0.7,0-1-0.7-1-1c0-0.6,0.3-1,1-1l5.5,1v1C591.7,251,590,251.5,588.3,251.8"/>
	<path class="st0" d="M590.2,255.1c-0.7,0-1-0.7-1-1c0-0.7,0.7-1,1.3-1l5.5,1.3l-0.3,0.7C593.6,254.2,592,254.8,590.2,255.1"/>
	<path class="st0" d="M592.5,258.7c-0.7,0-1-0.3-1-1c0.3-0.7,0.7-1,1.3-1l5.5,1.6l-0.3,0.7C596.1,258.4,594.1,258.6,592.5,258.7"/>
	<path class="st0" d="M594.5,262.2c-0.3,0-1-0.6-0.7-1.3c0-0.3,0.7-0.7,1.3-0.7l5.2,2.3l-0.3,0.7C598,262.4,596.3,262.1,594.5,262.2
		"/>
	<path class="st0" d="M597.1,266.5c-0.3,0-1-0.7-0.7-1c0-0.6,0.7-1,1.3-1l5.2,2.3l-0.3,0.7C600.6,266.6,598.9,266.3,597.1,266.5"/>
	<path class="st0" d="M598.7,270.4c-0.7,0-1-0.7-0.7-1.3c0-0.3,0.7-0.6,1.3-0.6l5.2,2l-0.3,1C602.3,270.5,600.5,270.2,598.7,270.4"
		/>
	<path class="st0" d="M600,274.3c-0.7-0.3-1-0.7-0.7-1.3c0-0.7,0.7-1,1.3-0.7l5.2,2l-0.3,0.6C603.6,274.3,601.9,274.1,600,274.3"/>
	<path class="st0" d="M601.3,277.9c-0.3-0.3-0.6-1-0.3-1.6c0-0.3,0.6-0.7,1.3-0.7l4.9,2.6l-0.3,0.7
		C604.9,278,603.3,277.7,601.3,277.9"/>
	<path class="st0" d="M602.6,282.1c-0.3,0-0.7-0.6-0.3-1.3c0-0.3,0.7-0.7,1.3-0.3l4.9,2.6l-0.3,0.6
		C606.3,282.9,604.5,282.3,602.6,282.1"/>
	<path class="st0" d="M604.5,287c-0.7,0-1.2-1-0.9-1.7c0.3-0.3,0.7-0.7,1.3-0.7l4.9,2.9l-0.3,0.7C607.8,287.4,606.1,287.4,604.5,287
		"/>
	<path class="st0" d="M583.1,245.3c-0.3,0-1-0.3-1-1c0-0.7,0.7-1,1.3-1l5.5,1v0.7C586.6,244.3,584.9,245,583.1,245.3"/>
	<path class="st0" d="M580.5,242.1c-0.3,0-1-0.3-1-1c0-0.7,0.7-1,1.3-1l5.5,1v0.7C584,241.1,582.2,241.7,580.5,242.1"/>
	<path class="st0" d="M577.5,239.1c-0.7,0-1.3-0.7-1-1.3c0-0.3,0.3-1,1-1l5.5,1v0.6C581,238,579.3,238.7,577.5,239.1"/>
	<path class="st0" d="M575.3,235.5c-0.7-0.3-1-0.7-1-1.3c0-0.7,0.7-1,1.3-1l5.2,1.6v1C578.7,234.8,577,235.3,575.3,235.5"/>
	<path class="st0" d="M580.6,231.6c-0.2-0.6,0.4-1.1,1.1-0.9c0.6-0.2,1.1,0.4,0.9,1.1l-0.7,5.5l-0.7-0.2
		C581.6,235.1,581,233.4,580.6,231.6"/>
	<path class="st0" d="M585.4,233.3c0-0.3,0.7-0.7,1.3-0.7c0.3,0,0.7,0.7,0.7,1.3l-2,5.2h-0.7C585.3,237.1,585.6,235.1,585.4,233.3"
		/>
	<path class="st0" d="M588.3,236.2c0-0.6,0.7-1,1.3-0.6c0.7,0,0.7,0.6,0.7,1.3l-2.6,6.2H587C588.1,240.7,588.1,238.2,588.3,236.2"/>
	<path class="st0" d="M590.9,239.1c0.3-0.7,0.7-1,1.3-1c0.7,0.3,1,0.7,1,1.3l-2.6,6.5l-0.7-0.3C591.2,243.3,590.9,241.1,590.9,239.1
		"/>
	<path class="st0" d="M593.5,241.7c0-0.7,0.7-0.7,1.3-0.7c0.3,0.3,0.7,0.7,0.7,1.3l-2.9,6.2h-0.7C592.9,246.2,593.6,244,593.5,241.7
		"/>
	<path class="st0" d="M596.4,245.3c0.3-0.3,0.7-0.6,1.3-0.6c0.7,0.3,1,1,0.7,1.6c-0.3,0.3-0.7,0.6-1,0.6l-2,5.5l-0.7-0.3l2-5.5
		C596.4,246.3,596.1,246,596.4,245.3"/>
	<path class="st0" d="M599,249.2c0-0.6,0.7-0.6,1.3-0.6c0.3,0.3,0.7,1,0.7,1.3l-2.9,6.2l-1-0.3C598.3,253.5,599.1,251.4,599,249.2"
		/>
	<path class="st0" d="M601.3,252.5c0-0.3,0.7-0.7,1.3-0.3c0.3,0,0.6,0.6,0.3,1.3l-3.3,5.9L599,259
		C600.1,256.8,601,254.7,601.3,252.5"/>
	<path class="st0" d="M603.6,256.7c0.3-0.6,1-0.6,1.3-0.6c0.7,0.3,1,1,0.7,1.6l-3.3,5.9l-1-0.3C602.7,261,603.7,259,603.6,256.7"/>
	<path class="st0" d="M605.5,259.6c0.3-0.3,1-0.6,1.3-0.3c0.7,0.3,0.7,1,0.3,1.6l-3.9,5.5l-0.6-0.3C604,264,605.2,261.9,605.5,259.6
		"/>
	<path class="st0" d="M607.2,263.6c0.3-0.3,1-0.6,1.3-0.3c0.6,0.3,0.6,1,0.6,1.3l-3.9,5.9l-0.7-0.3
		C605.8,267.9,606.8,265.8,607.2,263.6"/>
	<path class="st0" d="M608.8,266.5c0.3-0.3,1-0.7,1.3-0.3c0.7,0.3,0.7,1,0.3,1.6l-4.2,5.2l-0.7-0.3
		C607.1,270.6,608.4,268.7,608.8,266.5"/>
	<path class="st0" d="M610.4,269.7c0.3-0.7,1-0.7,1.3-0.3c0.6,0.3,0.6,1,0.3,1.3l-4.6,5.2l-0.7-0.3
		C608.6,273.9,609.6,271.6,610.4,269.7"/>
	<path class="st0" d="M611.4,273c0.3-0.3,1-0.3,1.3,0c0.7,0.3,0.7,1,0.3,1.3l-4.2,5.2l-0.7-0.3C609.7,277.1,611,275.3,611.4,273"/>
	<path class="st0" d="M613,277.6c0.3-0.7,1-0.7,1.6-0.3c0.3,0.3,0.3,1,0,1.6l-4.6,4.9l-0.7-0.6C611.3,281.5,612.2,279.3,613,277.6"
		/>
	<path class="st0" d="M614.3,281.5c0.3-0.3,1-0.3,1.3,0c0.3,0.3,0.7,1,0.3,1.3l-4.9,5.2l-0.7-0.7
		C612.1,285.5,613.5,283.7,614.3,281.5"/>
	<path class="st0" d="M615.3,286.7c0.3-0.3,1-0.7,1.6,0c0.3,0.3,0.3,1,0,1.3l-4.9,4.9l-0.6-0.7C613.3,290.4,614.8,288.9,615.3,286.7
		"/>
	<path class="st0" d="M616,292.2c0.3-0.3,1-0.6,1.6,0c0.3,0.3,0.3,1,0,1.3l-4.9,4.9l-0.6-0.6C614,296.2,615,293.9,616,292.2"/>
	<path class="st0" d="M616.9,298.4c0.3-0.3,1-0.3,1.6,0c0.3,0.3,0.3,1,0,1.3l-4.9,4.9l-0.7-0.3C614.9,302.3,616.4,300.7,616.9,298.4
		"/>
	<path class="st0" d="M617.6,304.6c0.3-0.3,1-0.7,1.3,0c0.3,0.3,0.7,1,0,1.3l-4.9,4.6l-0.7-0.3C615.2,308.4,616.7,306.7,617.6,304.6
		"/>
	<path class="st0" d="M617.6,310.8c0.6-0.7,1.3-0.7,1.6-0.3c0.3,0.6,0.3,1.3,0,1.6l-5.2,4.2l-0.7-0.3
		C615.4,314.6,616.7,312.3,617.6,310.8"/>
	<path class="st0" d="M617.9,316.3c0.7-0.3,1.3-0.3,1.6,0c0.3,0.6,0,1.3-0.3,1.6l-5.9,3.6l-0.7-0.7
		C614.9,319.8,616.5,317.9,617.9,316.3"/>
	<path class="st0" d="M617.6,322.2c0.6-0.3,1.3,0,1.6,0.3c0.3,0.6,0,1.3-0.3,1.6l-6.2,2.9l-0.3-0.6
		C614.7,325.2,616.5,324.3,617.6,322.2"/>
	<path class="st0" d="M616.9,328c0.7-0.3,1.3,0,1.6,0.3c0,0.7,0,1.3-0.3,1.6l-6.2,2.9l-0.6-0.6C613.9,331.1,615.8,330.1,616.9,328"
		/>
	<path class="st0" d="M616.3,333.9c0.7-0.3,1.3,0,1.6,0.3c0,0.7,0,1.3-0.7,1.3l-6.5,2.3l-0.3-0.6
		C612.7,336.3,614.8,335.4,616.3,333.9"/>
	<path class="st0" d="M615.6,338.5c0.7-0.3,1.3,0,1.3,0.7c0.3,0.3,0,1-0.3,1.3l-6.5,2.3l-0.3-0.7C612,341.1,614,340.1,615.6,338.5"
		/>
	<path class="st0" d="M614.7,342.7c0.3-0.3,1,0,1.3,0.6c0.3,0.3,0,1-0.3,1.3l-6.5,2.3l-0.3-0.7C611,345.3,613.1,344.4,614.7,342.7"
		/>
	<path class="st0" d="M613.7,346.3c0.7-0.3,1.3,0,1.3,0.3c0.3,0.7,0.3,1.3,0,1.6l-7.5,3.9l-0.7-0.7
		C609.4,349.9,612.1,348.5,613.7,346.3"/>
	<path class="st0" d="M605.2,291.6c-0.7-0.3-0.7-1-0.7-1.6c0.3-0.3,1-0.7,1.6-0.3l5.9,3.6l-0.3,0.7
		C609.7,292.3,607.3,292,605.2,291.6"/>
	<path class="st0" d="M606.2,296.4c-0.3-0.3-0.7-1-0.3-1.3c0.3-0.7,1-0.7,1.3-0.3l5.5,4.2l-0.3,0.6
		C610.3,298.1,608.4,296.9,606.2,296.4"/>
	<path class="st0" d="M606.5,302c-0.7-0.3-0.7-1-0.3-1.3c0.3-0.7,1-0.7,1.3-0.3l5.5,4.2l-0.3,0.6C610.8,303.6,608.4,302.8,606.5,302
		"/>
	<path class="st0" d="M607.2,307.5c-0.7-0.3-0.7-1-0.3-1.6c0.3-0.3,1-0.3,1.6,0c0.3,0.3,0.3,0.7,0.3,1l4.6,3.6l-0.3,0.6l-4.9-3.6
		C607.8,307.8,607.5,307.8,607.2,307.5"/>
	<path class="st0" d="M607.2,313.1c-0.3-0.3-0.3-1,0-1.3c0.3-0.7,1-0.7,1.3-0.3l5.2,4.9L613,317
		C611.2,315.3,609.4,313.9,607.2,313.1"/>
	<path class="st0" d="M607.2,317.9c-0.7-0.3-0.7-1,0-1.6c0.3-0.3,1-0.3,1.3,0l4.6,5.2l-0.7,0.7C611,320.1,608.8,318.9,607.2,317.9"
		/>
	<path class="st0" d="M606.9,322.5c-0.3-0.3-0.3-1,0-1.6c0.3-0.3,1-0.3,1.3,0l4.6,5.2l-0.3,0.7C610.6,324.7,609.1,323.1,606.9,322.5
		"/>
	<path class="st0" d="M606.5,327.7c-0.3-0.3-0.3-1,0-1.3c0.3-0.6,1-0.3,1.3,0l4.2,5.5l-0.6,0.3C610.1,330.3,608.2,329,606.5,327.7"
		/>
	<path class="st0" d="M605.5,332.3c-0.3-0.7-0.3-1.3,0-1.6c0.6-0.3,1.3-0.3,1.6,0.3l3.6,5.9l-0.7,0.3
		C609,335.1,607.1,333.6,605.5,332.3"/>
	<path class="st0" d="M602.9,342.7c-0.3-0.7-0.3-1.3,0.3-1.6c0.3-0.3,1-0.3,1.3,0.3l3.6,5.9l-0.7,0.3
		C606.4,345.5,604.5,344.1,602.9,342.7"/>
	<path class="st0" d="M600.7,347.6c-0.3-0.7,0-1.3,0.3-1.6c0.7-0.3,1.3,0,1.6,0.3l3.3,6.8l-0.7,0.3
		C603.9,350.9,602.9,348.8,600.7,347.6"/>
	<path class="st0" d="M604.2,336.8c-0.3-0.7-0.3-1.3,0.3-1.6c0.3-0.3,1,0,1.3,0.3l3.6,6.8l-0.6,0.3
		C607.8,340.3,605.8,338.4,604.2,336.8"/>
	<path class="st0" d="M578.2,231.3c19.5,19.2,31.9,42.3,35.5,67.4c3.6,25.4-2,51.1-16,74.3c-0.3,0.6-1.3,0.6-1.6,0.3
		c-0.7-0.3-0.7-1-0.3-1.3c13.7-22.8,19.2-47.9,15.6-73c-3.6-24.4-15.3-47.6-34.5-66.1c-0.7-0.3-0.7-1,0-1.6
		C577.2,231,577.9,231,578.2,231.3"/>
	<path class="st0" d="M505.1,233.4L505.1,233.4c-21.9,0-42.4,8.4-57.9,23.7c-15.4,15.3-23.9,35.6-23.9,57.1
		c0,44.5,36.7,80.7,81.7,80.8h0c45.1,0,81.8-36.2,81.8-80.8v-0.1C586.8,269.6,550.2,233.4,505.1,233.4 M505.1,397.3L505.1,397.3
		c-46.4,0-84.1-37.3-84.2-83.1c0-22.2,8.7-43.1,24.6-58.8c15.9-15.7,37-24.4,59.5-24.4h0c46.4,0,84.1,37.3,84.2,83.1v0.1
		C589.2,360,551.5,397.3,505.1,397.3"/>
	<path class="st1" d="M465,398.1h6.1c-33.5-13.7-57.2-46.6-57.3-84.9c0-24.5,9.5-47.5,26.8-64.9c17.3-17.3,40.3-26.9,64.8-26.9h0
		c50.6,0,91.7,41.1,91.7,91.7v0.1c0,24.5-9.6,47.5-26.9,64.8c-8.8,8.8-19,15.5-30.2,20.1h6.1c9.5-4.5,18.2-10.7,25.9-18.4
		c17.8-17.8,27.6-41.4,27.6-66.6v-0.1c0-51.9-42.3-94.1-94.2-94.1h0c-51.9,0-94.2,42.3-94.1,94.2C411.4,350.6,433.4,383,465,398.1"
		/>
	<path class="st1" d="M600.3,361.3l-4.4-13.4c-7.9,21.4-23.7,39.3-43.7,50.3v22.3h-2.4v4c34.8-13.7,61.5-43.3,71.3-80.1L600.3,361.3
		z"/>
	<path class="st1" d="M458.9,420.5v-22.3h0.2c-20.1-10.7-36.2-28-44.1-49.4l-4.2,12.5L390,344.3c9.8,36.8,36.5,66.4,71.3,80.1v-4
		H458.9z"/>
</g>
<path class="st1" d="M459.3,420.1h92.5v-21.5h-92.5V420.1z M552.7,420.9h-94.2v-23.1h94.2V420.9z"/>
<g>
	<path class="st2" d="M505.6,402.3c-3.9,0-7,3.1-7,7c0,3.9,3.1,7,7,7c3.9,0,7-3.1,7-7C512.6,405.4,509.4,402.3,505.6,402.3
		 M505.6,417.4c-4.5,0-8.1-3.7-8.1-8.1c0-4.5,3.7-8.1,8.1-8.1c4.5,0,8.1,3.6,8.1,8.1C513.7,413.8,510.1,417.4,505.6,417.4"/>
	<path class="st2" d="M529.3,402.3c-3.9,0-7,3.1-7,7c0,3.9,3.1,7,7,7c3.9,0,7-3.1,7-7C536.3,405.4,533.2,402.3,529.3,402.3
		 M529.3,417.4c-4.5,0-8.1-3.7-8.1-8.1c0-4.5,3.7-8.1,8.1-8.1c4.5,0,8.1,3.6,8.1,8.1C537.4,413.8,533.8,417.4,529.3,417.4"/>
	<path class="st2" d="M517.4,402.3c-3.9,0-7,3.1-7,7c0,3.9,3.1,7,7,7c3.9,0,7-3.1,7-7C524.4,405.4,521.3,402.3,517.4,402.3
		 M517.4,417.4c-4.5,0-8.1-3.7-8.1-8.1c0-4.5,3.7-8.1,8.1-8.1c4.5,0,8.1,3.6,8.1,8.1C525.6,413.8,521.9,417.4,517.4,417.4"/>
	<path class="st2" d="M493.7,402.3c-3.9,0-7,3.1-7,7c0,3.9,3.1,7,7,7c3.9,0,7-3.1,7-7C500.7,405.4,497.6,402.3,493.7,402.3
		 M493.7,417.4c-4.5,0-8.1-3.7-8.1-8.1c0-4.5,3.7-8.1,8.1-8.1c4.5,0,8.1,3.6,8.1,8.1C501.9,413.8,498.2,417.4,493.7,417.4"/>
	<path class="st2" d="M481.9,402.3c-3.9,0-7,3.1-7,7c0,3.9,3.1,7,7,7c3.9,0,7-3.1,7-7C488.9,405.4,485.7,402.3,481.9,402.3
		 M481.9,417.4c-4.5,0-8.1-3.7-8.1-8.1c0-4.5,3.7-8.1,8.1-8.1c4.5,0,8.1,3.6,8.1,8.1C490,413.8,486.4,417.4,481.9,417.4"/>
	<path class="st2" d="M470,402.3c-3.9,0-7,3.1-7,7c0,3.9,3.1,7,7,7c3.9,0,7-3.1,7-7C477,405.4,473.9,402.3,470,402.3 M470,417.4
		c-4.5,0-8.1-3.7-8.1-8.1c0-4.5,3.7-8.1,8.1-8.1c4.5,0,8.1,3.6,8.1,8.1C478.1,413.8,474.5,417.4,470,417.4"/>
	<path class="st2" d="M541.2,402.3c-3.9,0-7,3.1-7,7c0,3.9,3.1,7,7,7c3.9,0,7-3.1,7-7C548.1,405.4,545,402.3,541.2,402.3
		 M541.2,417.4c-4.5,0-8.1-3.7-8.1-8.1c0-4.5,3.6-8.1,8.1-8.1c4.5,0,8.1,3.6,8.1,8.1C549.3,413.8,545.6,417.4,541.2,417.4"/>
	<path class="st1" d="M569.8,345.6c-0.1-0.4-0.1-0.8-0.1-1.1c0-0.3-0.1-0.5-0.1-0.7c-0.1-0.2-0.2-0.4-0.2-0.7c0-0.3,0-0.8-0.1-1
		c-0.1-0.3-0.3-0.3-0.4-0.4c-0.1-0.1-0.2-0.1-0.3-0.2c0-0.1-0.1-0.3-0.1-0.4c-0.1-0.1-0.2-0.1-0.2-0.2c0-0.1,0-0.2,0-0.4
		c0-0.1-0.1-0.2-0.2-0.2c-0.1,0-0.2,0.1-0.2,0.2c0,0.1-0.1,0.3-0.2,0.3c-0.1,0.1-0.3,0.1-0.4,0.1c-0.1,0-0.2,0.1-0.1,0.2
		c0,0.1,0.2,0.2,0.3,0.3c0.1,0.1,0.1,0.2,0,0.3c-0.1,0.1-0.2,0.2-0.2,0.4c-0.1,0.2-0.1,0.4-0.1,0.5c0,0.1-0.1,0.2-0.1,0.2
		c-0.1,0-0.2,0-0.3,0c-0.1,0-0.2,0-0.3,0.1c-0.1,0.1-0.1,0.2-0.1,0.3c-0.1,0.1-0.2,0.3-0.3,0.3c-0.1,0-0.2-0.2-0.3-0.2
		c-0.1,0-0.2,0-0.3,0.1c-0.1,0.1-0.1,0.3-0.1,0.4c0,0.1,0.1,0.2,0.2,0.3c0.1,0.1,0.1,0.2,0.1,0.3c0,0.1,0,0.2,0,0.2
		c0,0-0.1-0.1-0.2-0.1s-0.3,0.1-0.4,0.2c-0.1,0.1,0,0.2,0.1,0.2c0.1,0.1,0.2,0.1,0.3,0.2c0.1,0.1,0.1,0.2,0,0.2
		c-0.1,0.1-0.2,0.1-0.3,0.1c-0.1,0-0.3,0.1-0.3,0.2c-0.1,0.1-0.1,0.2-0.1,0.3c0,0.1-0.1,0.2-0.2,0.3c-0.1,0.1-0.2,0.1-0.2,0
		c0-0.1,0.1-0.2,0.2-0.4c0.1-0.1,0.1-0.3,0-0.3c-0.1,0-0.3,0-0.4,0.2c-0.1,0.1-0.2,0.3-0.2,0.5c0,0.1,0,0.3,0,0.3
		c0,0.1,0.1,0.1,0.2,0.1c0.1,0,0.1,0.1,0,0.2c-0.1,0.1-0.3,0.1-0.4,0.1c-0.1,0-0.1-0.2-0.3-0.2c-0.1,0-0.4,0-0.5,0.1
		c-0.1,0.1-0.1,0.1-0.2,0.2c-0.1,0-0.1,0.1-0.2,0.1c-0.1,0-0.2,0.1-0.2,0.2c0,0.1,0,0.2,0.1,0.3c0,0.1,0.1,0.2,0.1,0.2
		c0,0.1,0,0.2-0.1,0.2c-0.1,0-0.3,0-0.4-0.1c-0.1-0.1-0.2-0.2-0.3-0.3c-0.1,0-0.4,0-0.5,0.1c-0.1,0.1-0.2,0.2-0.3,0.3
		c-0.1,0.1-0.2,0.1-0.4,0.1c-0.2,0-0.4-0.1-0.6,0c-0.2,0.1-0.2,0.2-0.3,0.3c-0.1,0.1-0.2,0.2-0.4,0.2c-0.2,0-0.4,0-0.6,0
		c-0.2,0.1-0.2,0.2-0.2,0.4c0,0.2,0,0.4-0.1,0.6c-0.1,0.3-0.4,0.6-0.6,0.9c-0.2,0.3-0.3,0.7-0.3,1.1c0,0.5,0.2,1,0.4,1.4
		s0.2,0.4,0.2,0.6c0,0.2-0.1,0.4,0,0.6c0.1,0.2,0.3,0.4,0.4,0.5c0.1,0.2,0.1,0.3,0.1,0.5c0,0.2,0,0.5-0.1,0.7c0,0.2,0,0.4-0.1,0.6
		c-0.1,0.2-0.4,0.3-0.6,0.5c-0.2,0.2-0.3,0.4-0.3,0.6c0,0.2-0.1,0.5-0.2,0.6c-0.1,0.2-0.3,0.3-0.4,0.4c-0.1,0.2-0.2,0.4-0.3,0.5
		c-0.1,0.2-0.1,0.3-0.2,0.5c-0.1,0.2-0.3,0.5-0.3,0.9c0,0.4,0.2,0.8,0.3,1.1c0.2,0.3,0.3,0.5,0.3,0.7c0,0.2,0,0.5-0.1,0.8
		c0,0.3-0.1,0.6-0.1,0.9c0,0.3,0,0.5,0.2,0.7s0.3,0.3,0.4,0.5c0.1,0.2,0.1,0.3,0.1,0.5c0,0.2,0,0.4,0.1,0.5c0.1,0.1,0.3,0.2,0.5,0.3
		c0.2,0,0.4,0.1,0.6,0.1c0.2,0.1,0.3,0.2,0.5,0.4c0.2,0.1,0.4,0.3,0.7,0.3c0.3,0,0.8-0.1,1-0.2c0.3-0.2,0.4-0.4,0.5-0.5
		c0.1-0.1,0.2-0.1,0.5-0.1c0.3,0,0.7,0,1.1-0.1c0.3-0.1,0.5-0.4,0.7-0.7c0.2-0.3,0.5-0.8,0.6-1.1c0.1-0.3,0.1-0.6,0.3-0.8
		c0.1-0.2,0.3-0.4,0.4-0.7c0.1-0.3,0.2-0.7,0.2-1.1c0-0.3,0-0.6,0.1-0.9c0.1-0.3,0.3-0.8,0.5-1.2s0.3-0.8,0.4-1.1
		c0.1-0.3,0.1-0.6,0.2-1c0.1-0.4,0.2-0.9,0.3-1.2c0.1-0.3,0.3-0.5,0.4-0.7c0.1-0.3,0.1-0.6,0.2-1c0.1-0.3,0.2-0.6,0.4-1
		c0.2-0.3,0.5-0.7,0.7-1.3c0.2-0.6,0.2-1.5,0.2-2c0-0.5,0.1-0.6,0.2-0.7c0.2,0,0.4,0,0.6-0.1c0.2-0.1,0.3-0.2,0.4-0.3
		c0-0.1,0-0.2-0.1-0.2c-0.1,0-0.3,0-0.4,0c-0.1-0.1-0.1-0.2,0-0.4c0.1-0.2,0.2-0.3,0.1-0.6c0-0.3-0.2-0.6-0.3-0.9
		c-0.1-0.3,0-0.6,0.1-0.7c0.1-0.1,0.2-0.1,0.3,0c0.1,0.1,0.1,0.3,0.2,0.5c0.1,0.2,0.2,0.4,0.3,0.4c0.1,0,0.3-0.1,0.4-0.4
		c0.1-0.2,0.2-0.6,0.2-0.9C570.1,346.3,569.9,346,569.8,345.6"/>
	<path class="st1" d="M570.4,295.8C570.4,295.8,570.4,295.8,570.4,295.8c0-0.1,0.1-0.2,0.1-0.2c0-0.1,0-0.2,0-0.3
		c-0.1-0.1-0.2-0.2-0.4-0.2c-0.2-0.1-0.4-0.1-0.6,0c-0.1,0.1-0.1,0.2-0.2,0.3c0,0,0,0.1-0.1,0.1c-0.1,0.1-0.2,0.1-0.3,0.2
		c-0.3,0.2-0.5,0.2-1,0.3c-0.5,0.1-1.3,0.3-1.8,0.4c-0.1,0-0.2,0-0.3,0.1c-0.3,0-0.6,0.1-0.8,0.1c-0.3,0-0.6,0.1-0.8,0.1
		c-0.1,0-0.1,0-0.2,0c0,0-0.1,0-0.1,0c-0.2,0-0.4,0-0.6,0.1c-0.2,0.1-0.4,0.2-0.6,0.4c-0.1,0.1-0.3,0.2-0.5,0.2
		c-0.3,0.1-0.7,0.1-1,0.1c-0.2,0-0.3-0.1-0.4-0.1c-0.2,0-0.3,0.1-0.6,0.2c-0.1,0.1-0.3,0.1-0.5,0.2c-0.2,0.1-0.4,0.1-0.6,0.2
		c-0.3,0.1-0.7,0.2-0.9,0.1s-0.5-0.1-0.8-0.3c-0.3-0.2-0.6-0.5-0.9-0.8c0,0-0.1-0.1-0.1-0.1c-0.1-0.1-0.2-0.2-0.4-0.4
		c-0.2-0.2-0.4-0.4-0.6-0.5c-0.2-0.1-0.3-0.1-0.5-0.1c0,0,0,0,0,0c-0.1,0-0.2,0-0.3,0c-0.1,0-0.2-0.1-0.1-0.2c0-0.1,0.2-0.1,0.4-0.2
		c0.1,0,0.1,0,0.2-0.1c0,0,0,0,0,0c0.2,0,0.4-0.1,0.5-0.2c0.1-0.1,0.2-0.2,0.2-0.3c0-0.1,0-0.3-0.1-0.5c-0.1-0.2-0.2-0.4-0.3-0.6
		c-0.1-0.2-0.2-0.3-0.4-0.4c-0.1-0.1-0.3-0.1-0.4-0.1c0,0,0,0,0,0c0,0-0.1,0-0.1,0c-0.2-0.1-0.3-0.1-0.3-0.2c0,0,0,0-0.1-0.1
		c0-0.1-0.1-0.2-0.2-0.2c-0.1-0.1-0.1-0.1-0.2-0.2c-0.1-0.1-0.2-0.2-0.3-0.2c-0.1-0.1-0.2-0.2-0.3-0.3c0-0.1-0.1-0.2-0.1-0.2
		c-0.1-0.1-0.2-0.2-0.3-0.3c0,0-0.1,0-0.2-0.1c-0.1,0-0.1-0.1-0.2-0.1c-0.1-0.1-0.2-0.2-0.2-0.3c0,0,0,0,0,0c0-0.1-0.1-0.1-0.2-0.3
		c-0.1-0.1-0.4-0.3-0.5-0.5c-0.1,0-0.1-0.1-0.2-0.1c0,0,0,0-0.1,0c-0.1,0-0.3-0.1-0.4-0.2c0,0-0.1,0-0.1-0.1
		c-0.1-0.1-0.1-0.2-0.3-0.2c-0.1-0.1-0.3,0-0.5-0.1c-0.1,0-0.2,0-0.3-0.1c-0.1,0-0.2-0.1-0.3-0.3c0,0,0-0.1-0.1-0.1c0,0,0,0,0,0
		c0-0.1-0.1-0.3-0.2-0.4c-0.1-0.1-0.2-0.1-0.3-0.1c-0.1,0-0.2,0-0.3,0.1c0,0,0,0.1,0,0.1c0,0,0,0,0,0.1c0,0.1,0,0.1-0.1,0.2
		c0,0-0.1,0-0.1-0.1c0-0.1-0.1-0.3-0.2-0.4c0-0.1-0.1-0.2-0.1-0.4c-0.1-0.2-0.2-0.3-0.3-0.5c0,0,0-0.1-0.1-0.1
		c0-0.1-0.1-0.2-0.1-0.2c-0.1-0.1-0.1-0.3-0.2-0.5c0-0.1,0-0.1,0-0.2c0,0,0,0,0,0c0-0.2-0.1-0.4-0.1-0.6c-0.1-0.3-0.2-0.6-0.3-0.8
		c-0.1-0.3-0.2-0.5-0.3-0.6c-0.1-0.1-0.1-0.2-0.2-0.4c-0.1-0.1-0.2-0.3-0.3-0.4c-0.1-0.1-0.2-0.1-0.3-0.2c-0.1-0.1-0.2-0.2-0.3-0.3
		c-0.1-0.1-0.2-0.2-0.3-0.3c-0.1-0.1-0.2-0.2-0.3-0.3c-0.1-0.1-0.2-0.1-0.3-0.2c-0.1-0.1-0.2-0.1-0.3-0.2c-0.2-0.1-0.4-0.3-0.5-0.5
		c-0.1-0.2-0.2-0.4-0.2-0.6c0-0.1,0-0.1,0-0.2c0-0.1,0-0.2-0.1-0.4c0-0.2-0.1-0.3-0.2-0.5c-0.1-0.2-0.1-0.5-0.2-0.6
		c0-0.2,0-0.3,0-0.4c0-0.1,0-0.2,0-0.3c0-0.1,0-0.3-0.1-0.4c0,0,0-0.1,0-0.1c0-0.1,0-0.2,0-0.3c0,0,0.1,0,0.1-0.1c0.1,0,0.2,0,0.2,0
		c0.1,0,0.1-0.1,0.1-0.2c0-0.1-0.2-0.2-0.3-0.3c0,0,0,0,0,0c-0.1-0.1-0.3-0.3-0.4-0.4c-0.1-0.2-0.2-0.3-0.2-0.5c0,0,0-0.1,0-0.1
		c0-0.2-0.1-0.4-0.2-0.5c0,0,0,0,0,0c-0.1-0.1-0.1-0.2-0.3-0.2c-0.1,0-0.2-0.1-0.4-0.2c-0.2-0.1-0.4-0.3-0.6-0.4
		c-0.2-0.1-0.4-0.2-0.5-0.3c-0.1-0.1-0.2-0.2-0.3-0.4c-0.1-0.2-0.2-0.4-0.3-0.7c-0.1-0.3-0.1-0.5-0.1-0.7c0-0.2,0.1-0.3,0.1-0.4
		c0-0.1-0.1-0.2-0.2-0.3c-0.1-0.1-0.3-0.3-0.4-0.4c0,0,0,0,0,0c0,0,0,0,0,0c-0.1-0.1-0.2-0.2-0.3-0.4c-0.1-0.1-0.2-0.3-0.2-0.4
		c-0.1-0.1-0.1-0.2-0.2-0.3c-0.1-0.2-0.3-0.4-0.5-0.7c0-0.1-0.1-0.1-0.1-0.2c-0.2-0.4-0.5-0.8-0.7-1.1c-0.2-0.3-0.3-0.6-0.4-0.8
		c-0.1-0.2-0.1-0.3-0.2-0.5c-0.1-0.2-0.2-0.4-0.3-0.6c-0.1-0.2-0.3-0.3-0.4-0.5c-0.1-0.2-0.3-0.3-0.3-0.5c-0.1-0.2-0.1-0.3-0.2-0.4
		c-0.1-0.1-0.2-0.3-0.3-0.4c-0.1-0.1-0.3-0.2-0.4-0.3c-0.1-0.1-0.2-0.1-0.2-0.2c0-0.1-0.1-0.1-0.1-0.2c0,0-0.1-0.1-0.1-0.1
		c0,0-0.1-0.1-0.1-0.1c-0.1-0.2-0.3-0.4-0.4-0.6c-0.1-0.2-0.2-0.3-0.3-0.4c-0.1-0.1-0.2-0.3-0.3-0.5c0-0.2,0-0.3,0.1-0.4
		c0.1-0.1,0.2-0.1,0.3-0.1c0.1,0,0.2,0.1,0.3,0.2c0.1,0.1,0.3,0.3,0.5,0.5c0.2,0.2,0.3,0.4,0.4,0.6c0.1,0.2,0.1,0.3,0.2,0.4
		c0,0.2,0.1,0.4,0.1,0.5c0,0.1,0.1,0.2,0.2,0.2c0.1,0.1,0.2,0.2,0.5,0.3c0.2,0.2,0.5,0.4,0.8,0.5c0.3,0.1,0.5,0.1,0.6,0.1
		c0.1,0,0.2-0.1,0.2-0.2c0-0.1,0-0.2,0-0.4c0-0.2,0-0.4,0.1-0.6c0-0.2,0.1-0.3,0.1-0.5c0-0.2,0.1-0.3,0.1-0.4c0-0.1,0-0.2,0-0.3
		c0-0.1,0-0.3,0.1-0.4c0-0.1,0.1-0.3,0.2-0.4c0-0.1,0.1-0.2,0-0.3c0-0.2-0.1-0.4-0.1-0.6c0-0.2-0.1-0.4-0.1-0.5
		c0-0.1-0.1-0.2-0.1-0.3c-0.1-0.1-0.2-0.3-0.3-0.4c-0.1-0.1-0.2-0.2-0.2-0.3c-0.1-0.1-0.2-0.3-0.2-0.4c-0.1-0.1-0.1-0.2-0.3-0.2
		c-0.1,0-0.4,0.1-0.6,0.2c-0.2,0.1-0.5,0.1-0.7,0.1c-0.2,0-0.4,0-0.6,0c-0.2,0-0.3,0-0.4,0c-0.1,0-0.2,0.1-0.3,0.2
		c-0.1,0-0.2,0.1-0.4,0.1c-0.1,0-0.3,0.1-0.4,0.2c-0.1,0.1-0.2,0.2-0.3,0.3c-0.1,0-0.1,0-0.2-0.1c-0.1-0.1-0.2-0.3-0.4-0.4
		c-0.2-0.1-0.4-0.2-0.7-0.2c-0.3-0.1-0.7-0.1-1.2-0.1c-0.4,0-0.8,0.2-1.1,0.3c-0.3,0.1-0.5,0.2-0.7,0.4c-0.2,0.1-0.5,0.3-0.7,0.4
		c-0.3,0.1-0.5,0.2-0.8,0.1c-0.2,0-0.5-0.1-0.7-0.2c-0.2-0.1-0.5-0.1-0.7-0.2c-0.2-0.1-0.4-0.1-0.7-0.2c-0.2,0-0.3-0.1-0.6-0.1
		c-0.1,0-0.1,0-0.2,0c-0.6-0.1-1.1-0.3-1.7-0.3c-0.6-0.1-1.2-0.1-1.6-0.1c-0.4,0-0.4-0.1-0.5-0.2c0,0-0.1-0.1-0.1-0.1
		c-0.1-0.1-0.1-0.2-0.2-0.3c-0.2-0.1-0.4-0.1-0.6-0.2c-0.1,0-0.2,0-0.3,0c-0.2-0.1-0.5-0.1-0.7-0.1c-0.4-0.1-0.8-0.1-1.1-0.2
		c-0.3-0.1-0.4-0.3-0.6-0.5c-0.1-0.2-0.3-0.3-0.7-0.4c-0.4-0.1-1-0.2-1.5-0.3c-0.5,0-0.8,0-1.1,0.1c-0.3,0.1-0.7,0.2-1,0.4
		c-0.4,0.2-0.8,0.6-1.1,0.9c-0.2,0.3-0.3,0.5-0.2,0.9c0.1,0.3,0.2,0.7,0.2,1c0,0.3-0.1,0.5-0.2,0.7c-0.1,0.2-0.2,0.3-0.4,0.4
		c-0.2,0.1-0.6,0.3-0.9,0.4c-0.3,0.1-0.5,0.1-0.7,0c-0.3-0.1-0.5-0.4-1-0.6c-0.4-0.2-1-0.5-1.6-0.7c-0.6-0.2-1.2-0.3-1.7-0.4
		c-0.5-0.1-0.9-0.2-1.2-0.3c-0.3-0.1-0.3-0.2-0.5-0.4c-0.1-0.2-0.3-0.6-0.4-0.8c-0.1-0.3-0.3-0.5-0.4-0.6c-0.2-0.1-0.3-0.2-0.6-0.3
		c0-0.1-0.1-0.1-0.3-0.1c-0.2,0-0.4,0-0.6,0c-0.1,0-0.3,0-0.4,0c-0.5-0.1-1.1-0.1-1.5-0.2c-0.4,0-0.5,0-0.8-0.1
		c-0.2-0.1-0.6-0.2-0.9-0.3c-0.3-0.1-0.6-0.1-0.8-0.1c-0.1-0.1-0.2-0.2-0.3-0.2c-0.1-0.1-0.2-0.1-0.3-0.2c-0.1,0-0.3-0.1-0.4-0.2
		c-0.1-0.1-0.1-0.1-0.2-0.2c0,0,0-0.1-0.1-0.1c-0.1-0.1-0.2-0.2-0.4-0.2c0,0-0.1,0-0.1,0c-0.1,0-0.1,0-0.2,0c0,0-0.1,0-0.1,0
		c0,0-0.1-0.1-0.2-0.1c0,0-0.1,0-0.2,0c-0.1,0-0.1,0-0.2-0.1c-0.2-0.1-0.4-0.2-0.5-0.2c-0.1-0.1-0.2-0.2-0.3-0.3c0-0.1,0-0.3,0-0.4
		c0-0.1,0.1-0.3,0.2-0.4c0.1-0.1,0.2-0.2,0.3-0.3c0.1,0,0.2-0.1,0.3-0.2c0.1-0.1,0.2-0.1,0.3-0.2c0.2-0.1,0.4-0.3,0.4-0.4
		c0-0.1,0-0.2,0-0.3c0-0.1,0-0.1,0-0.2c0-0.1,0-0.2,0-0.4c0,0,0,0,0,0c0,0,0.1-0.1,0.1-0.1c0-0.1,0-0.3,0-0.4c0-0.1-0.1-0.2-0.2-0.3
		c-0.1,0-0.1-0.1-0.2-0.1c-0.1-0.1-0.2-0.1-0.3-0.2c-0.1-0.1-0.2-0.2-0.2-0.3c0-0.1,0-0.2,0-0.3c0.1-0.1,0.2-0.3,0.3-0.4
		c0.1-0.1,0.2-0.1,0.2-0.2c0.2-0.1,0.4-0.3,0.5-0.5c0.1-0.2,0-0.5-0.1-0.6c-0.1-0.1-0.3-0.1-0.5,0c-0.1,0-0.1,0.1-0.2,0.1
		c0,0-0.1,0-0.1,0c-0.2,0-0.4,0.1-0.5,0.1c-0.1,0-0.1,0-0.1-0.1c0,0-0.1-0.1-0.1-0.2c0-0.1-0.1-0.2-0.2-0.3
		c-0.1-0.1-0.3-0.2-0.6-0.2c-0.2,0-0.6,0-0.8,0c-0.2,0.1-0.4,0.2-0.6,0.3c-0.2,0.1-0.3,0.1-0.5,0.2c-0.2,0.1-0.5,0.2-0.7,0.2
		c-0.1,0-0.3,0.1-0.4,0.1c0,0-0.1,0-0.1,0c-0.2,0-0.4-0.1-0.5-0.2c0,0,0,0,0,0c0,0,0,0,0,0c-0.2-0.1-0.3-0.1-0.5-0.1
		c-0.1,0-0.2,0-0.2,0.1c0,0,0,0,0,0c-0.2,0-0.3,0-0.5,0c-0.1,0-0.2,0-0.3-0.1c0,0,0,0-0.1,0c-0.1-0.1-0.2-0.1-0.4-0.1
		c-0.2,0-0.4,0-0.6,0c-0.1,0-0.1,0.1-0.2,0.1c0,0-0.1,0-0.1,0.1c-0.2,0.1-0.4,0.2-0.6,0.3c-0.2,0.1-0.4,0.1-0.6,0.1
		c-0.1,0-0.2,0-0.4-0.1c-0.1,0-0.1-0.1-0.2-0.1c0,0-0.1,0-0.2,0c-0.2-0.1-0.4-0.1-0.6-0.2c-0.3-0.1-0.5-0.1-0.7,0c0,0-0.1,0-0.1,0
		c-0.2,0-0.3,0-0.4,0.1c0,0-0.1,0-0.1,0c-0.1,0-0.2,0-0.3,0c-0.1,0-0.2,0-0.3,0c-0.1,0-0.2,0-0.2,0.1c-0.1,0-0.3,0-0.4,0.1
		c-0.1,0-0.2,0-0.3,0c-0.1,0-0.2,0.1-0.3,0.1c-0.1,0-0.2,0-0.3,0.1c-0.1,0-0.1,0-0.2,0c-0.1,0-0.2,0-0.3,0c-0.1,0-0.2,0.1-0.3,0.1
		c0,0,0,0,0,0c-0.1,0-0.2,0.1-0.4,0.1c-0.1,0-0.2,0-0.4,0c-0.1,0-0.2,0-0.4,0c-0.4,0-1,0.1-1.4,0.3c-0.2,0.1-0.4,0.2-0.5,0.3
		c-0.1,0.1-0.2,0.1-0.4,0.2c-0.1,0-0.2,0.1-0.3,0.1c0,0,0,0-0.1,0c-0.2,0-0.5,0.1-0.6,0.2c-0.2,0.1-0.2,0.1-0.3,0.2
		c-0.1,0-0.1,0-0.2,0.1c-0.1,0-0.2,0.1-0.3,0.1c-0.1,0-0.1,0-0.2,0.1c-0.1,0-0.3,0.1-0.4,0.3c-0.1,0.1-0.1,0.2-0.2,0.2
		c0,0,0,0-0.1,0c-0.2,0.2-0.4,0.3-0.5,0.5c-0.1,0.1-0.2,0.2-0.3,0.2c-0.1,0.1-0.2,0.1-0.3,0.1c-0.1,0-0.1,0-0.2,0
		c-0.1,0-0.2,0-0.3,0c-0.1,0-0.2,0-0.4-0.1c-0.1,0-0.3-0.1-0.4-0.1c-0.3-0.1-0.5-0.1-0.7-0.2c-0.2,0-0.4,0-0.6,0c-0.2,0-0.4,0-0.7,0
		c-0.2,0-0.3,0.1-0.5,0.1c-0.2,0-0.3,0-0.5,0c-0.2,0-0.3,0-0.5-0.1c-0.2-0.1-0.4-0.3-0.6-0.5c0,0-0.1-0.1-0.1-0.1
		c-0.1-0.1-0.2-0.2-0.3-0.3c-0.2-0.2-0.5-0.3-0.8-0.3c-0.2,0-0.5,0.1-0.7,0.5c-0.2,0.3-0.5,0.8-0.7,1.3c-0.1,0.2-0.2,0.5-0.3,0.7
		c-0.1,0.2-0.2,0.4-0.2,0.5c-0.1,0.1-0.1,0.2-0.2,0.3c-0.1,0.1-0.2,0.2-0.4,0.3c-0.1,0-0.1,0-0.2,0.1c-0.2,0.1-0.5,0.2-0.7,0.4
		c0,0-0.1,0-0.1,0.1c-0.1,0.1-0.2,0.1-0.4,0.2c-0.2,0.1-0.5,0.2-0.8,0.3c-0.1,0-0.2,0.1-0.3,0.1c-0.3,0.1-0.7,0.3-1.1,0.6
		c0,0-0.1,0.1-0.1,0.1c-0.2,0.1-0.4,0.3-0.5,0.4c-0.1,0.1-0.2,0.2-0.2,0.4c-0.1,0.2-0.1,0.3-0.1,0.4c0,0.2-0.1,0.3-0.1,0.4
		c0,0.1-0.1,0.2-0.2,0.3c0,0-0.1,0.1-0.1,0.1c-0.1,0.1-0.2,0.2-0.3,0.3c-0.1,0.2-0.2,0.3-0.2,0.7c0,0.2,0,0.4,0,0.6
		c0,0.2,0,0.4,0,0.6c0,0.2-0.1,0.5-0.1,0.6s-0.1,0.3-0.2,0.4c-0.1,0.1-0.2,0.3-0.3,0.4c0,0-0.1,0.1-0.1,0.1
		c-0.1,0.1-0.1,0.1-0.2,0.2c-0.1,0.1-0.1,0.2-0.2,0.3c0,0,0,0,0,0c-0.1,0.1-0.2,0.3-0.3,0.4c-0.1,0.1-0.2,0.2-0.3,0.3
		c0,0-0.1,0.1-0.1,0.1c-0.1,0-0.1,0.1-0.2,0.1c-0.2,0.1-0.3,0.2-0.5,0.3c-0.1,0.1-0.2,0.2-0.3,0.2c-0.2,0.1-0.4,0.3-0.6,0.4
		c-0.2,0.1-0.4,0.2-0.7,0.3c-0.2,0.1-0.5,0.2-0.8,0.3c-0.2,0.1-0.5,0.1-0.7,0.2c-0.4,0.1-0.9,0.2-1.2,0.4c-0.3,0.2-0.5,0.5-0.6,0.9
		c-0.1,0.2-0.2,0.3-0.2,0.5c0,0,0,0.1,0,0.1c-0.1,0.2-0.2,0.4-0.3,0.6c-0.1,0.1-0.2,0.2-0.4,0.3c-0.2,0.1-0.4,0.1-0.6,0.2
		c-0.1,0-0.2,0.1-0.2,0.2c0,0,0,0,0,0c-0.2,0.2-0.2,0.4-0.2,0.6c0,0,0,0,0,0.1c-0.1,0.2-0.1,0.3-0.2,0.4c0,0-0.1,0.1-0.1,0.1
		c0,0-0.1,0.1-0.1,0.1c-0.2,0.2-0.3,0.3-0.4,0.7c0,0.1-0.1,0.3-0.1,0.5c0,0.1-0.1,0.2-0.1,0.3c-0.1,0.2-0.1,0.3-0.2,0.4
		c-0.1,0.1-0.2,0.2-0.4,0.2c0,0-0.1,0-0.2,0.1c-0.3,0.1-0.7,0.2-1,0.4c-0.3,0.2-0.6,0.5-0.8,0.8c0,0.1-0.1,0.1-0.1,0.2
		c-0.1,0.2-0.3,0.4-0.4,0.5c-0.1,0.1-0.2,0.2-0.3,0.3c-0.1,0.1-0.3,0.3-0.3,0.4c-0.1,0.2-0.1,0.5-0.2,0.7c0,0,0,0,0,0
		c0,0.1,0,0.2-0.1,0.3c0,0.1-0.1,0.2-0.2,0.3c-0.1,0-0.2,0.1-0.2,0.1c-0.1,0-0.2,0-0.3,0.1c-0.2,0.1-0.3,0.3-0.5,0.5
		c-0.1,0.2-0.2,0.4-0.2,0.6c0,0.2,0,0.5,0,0.7c0,0.2,0.1,0.3,0.2,0.4c0.1,0.1,0.1,0.1,0.2,0.2c0,0,0,0,0.1,0.1
		c0.1,0.1,0.3,0.3,0.5,0.4c0.1,0.1,0.1,0.2,0.2,0.4c0,0.2,0.1,0.4,0.1,0.6c0,0.2,0,0.4,0,0.6c0,0.2-0.1,0.4-0.1,0.5
		c0,0.1-0.1,0.1-0.1,0.1c-0.1,0-0.1,0-0.2,0.1c-0.1,0-0.1,0.1,0,0.3c0,0.1,0.1,0.1,0.2,0.2c0.1,0.1,0.2,0.2,0.3,0.4
		c0.1,0.2,0.2,0.4,0.3,0.7c0.1,0.3,0.1,0.5,0,0.8c0,0.3-0.1,0.6-0.2,0.9c-0.1,0.3-0.1,0.5-0.2,0.7c-0.1,0.2-0.2,0.5-0.3,0.8
		c0,0.1-0.1,0.1-0.1,0.2c-0.1,0.1-0.2,0.3-0.2,0.4c-0.1,0.2-0.1,0.4-0.1,0.7c0,0.2-0.1,0.5-0.2,0.8c-0.1,0.3-0.3,0.6-0.5,0.9
		c0,0.1-0.1,0.1-0.2,0.2c-0.1,0.1-0.2,0.2-0.3,0.3c-0.1,0.1-0.2,0.2-0.3,0.2c-0.2,0.2-0.3,0.2-0.2,0.4c0.1,0.1,0.2,0.3,0.4,0.5
		c0,0,0,0.1,0,0.1c0.2,0.4,0.5,1,0.8,1.3c0,0,0,0,0,0c0,0,0,0.1,0,0.1c0,0-0.1,0-0.1,0.1c0,0,0,0-0.1,0c0,0,0,0,0,0
		c-0.1,0.1-0.2,0.1-0.3,0.2c-0.1,0.1-0.1,0.2-0.1,0.3c0,0.1,0.1,0.2,0.1,0.3c0,0.1,0,0.3,0,0.4c0,0.1,0.1,0.2,0.2,0.3
		c0,0,0.1,0,0.1,0c0.1,0.2,0.2,0.3,0.3,0.4c-0.1,0-0.1,0-0.2,0c-0.2,0-0.4,0-0.4,0.1c-0.1,0.1,0,0.2,0.1,0.3
		c0.1,0.1,0.3,0.1,0.4,0.2c0.1,0.1,0.1,0.2,0.2,0.2c0.1,0.1,0.1,0.1,0.3,0.1c0,0,0.1,0,0.1,0c0.1,0,0.3,0,0.3,0c0.1,0,0.1,0,0.1,0.1
		l0,0c0.1,0.1,0.1,0.2,0.2,0.2c0.1,0,0.2,0,0.3-0.1c0,0,0,0,0.1,0c0.1,0,0.2,0,0.3,0c0.1,0,0.2,0,0.2,0.1c0,0,0,0.1-0.1,0.2
		c0,0-0.1,0.1-0.2,0.1c0,0-0.1,0-0.2,0c-0.1,0-0.3,0.1-0.4,0.2c0,0-0.1,0.1-0.1,0.1c-0.2,0.1-0.4,0.3-0.6,0.4c-0.1,0-0.1,0-0.2,0.1
		c0,0.1,0,0.2,0,0.3c0,0.1,0.1,0.1,0.2,0.1c0,0,0.1-0.1,0.1-0.1c0.2-0.1,0.5-0.2,0.8-0.3c0.1,0,0.2,0,0.3,0c0.1,0,0.2,0.1,0.3,0.2
		c0.1,0,0.2,0,0.4,0c0,0,0.1,0,0.1,0c0,0,0.1,0,0.1,0c0.2,0,0.3,0.1,0.4,0.1c0.1,0,0.1,0,0.1,0.1c0,0,0,0.1,0.1,0.2
		c0,0.1,0,0.1,0,0.2c0,0.1,0.1,0.1,0.2,0.1c0,0,0.1,0,0.1,0.1c0.1,0,0.1,0.1,0.2,0.2c0,0,0,0.1,0,0.2c0,0,0,0,0,0.1
		c0,0.1,0,0.3,0.1,0.4c0.1,0.1,0.2,0.3,0.4,0.4c0.1,0.1,0.2,0.1,0.3,0.2c0.1,0,0.2,0.1,0.2,0.1c0.1,0.1,0.2,0.1,0.2,0.2
		c0,0,0,0,0.1,0.1c0,0,0.1,0,0.1,0.1c0.1,0.1,0.2,0.1,0.2,0.2c0,0,0.1,0.1,0.1,0.1c0.1,0.1,0.1,0.2,0.2,0.2c0,0.1,0.1,0.1,0.1,0.2
		c0.1,0.1,0.2,0.3,0.2,0.4c0,0,0,0.1,0.1,0.1c0,0,0,0,0,0c0,0,0,0,0,0.1c0,0,0,0.1,0,0.2c0,0.1,0,0.3,0,0.4c0,0,0,0.1-0.1,0.1
		c0,0-0.1,0.1-0.1,0.2c-0.1,0.1-0.1,0.3,0,0.4c0.1,0.1,0.2,0.2,0.3,0.3c0,0,0.1,0.1,0.1,0.1c0.1,0.1,0.1,0.2,0.2,0.2
		c0,0.1,0,0.2,0.1,0.3c0.1,0.1,0.2,0.1,0.4,0.2c0.1,0,0.2,0,0.3,0.1c0.1,0.1,0.2,0.1,0.2,0.2c0,0.1,0.1,0.1,0.1,0.2c0,0,0,0.1,0,0.1
		c0,0.1,0.1,0.3,0.3,0.4c0.1,0.1,0.3,0.1,0.4,0.1c0.1,0,0.3,0.1,0.4,0.1c0.1,0,0.2,0.1,0.3,0.1c0.2,0.1,0.4,0.3,0.6,0.5
		c0.2,0.2,0.4,0.4,0.6,0.5c0.1,0.1,0.2,0.1,0.3,0.2c0,0,0.1,0,0.1,0.1c0.1,0.1,0.3,0.2,0.5,0.3c0.1,0.1,0.2,0.1,0.2,0.2
		c0.1,0,0.2,0.1,0.2,0.1c0.2,0.1,0.3,0.2,0.5,0.3c0.1,0.1,0.2,0.2,0.3,0.3c0,0.1,0.1,0.1,0.1,0.2c0.1,0.1,0.2,0.3,0.4,0.4
		c0.1,0.1,0.3,0.2,0.5,0.3c0,0,0.1,0,0.1,0.1c0.2,0.1,0.4,0.3,0.5,0.4c0.1,0.1,0.2,0.2,0.3,0.2c0,0.1,0.1,0.1,0.1,0.2
		c0.1,0.1,0.2,0.2,0.4,0.3c0.1,0.1,0.3,0.1,0.5,0.2c0.2,0.1,0.5,0.2,0.8,0.3c0.3,0.1,0.5,0.2,0.7,0.2c0.2,0,0.3,0,0.5-0.1
		c0.1,0,0.2-0.1,0.3-0.1c0,0,0,0,0,0c0.3-0.1,0.7-0.3,1.2-0.5c0.5-0.2,0.9-0.4,1.3-0.5c0.4-0.1,0.8-0.2,1.1-0.3c0.2,0,0.5,0,0.7,0
		c0.1,0,0.2,0,0.4,0c0.1,0,0.3,0,0.4-0.1c0.2,0,0.4,0,0.6-0.1c0.3,0,0.5,0,0.8,0c0.1,0,0.3,0,0.4,0c0.1,0,0.2,0,0.3,0
		c0.2,0,0.4,0,0.5-0.1c0,0,0-0.1,0.1-0.1c0,0,0.1-0.1,0.2-0.1c0.1,0,0.2-0.1,0.3-0.1c0,0.1,0.1,0.1,0.1,0.2c0.1,0.1,0.2,0.2,0.3,0.3
		c0.2,0.1,0.4,0.2,0.6,0.2c0,0,0,0,0,0c0.2,0.1,0.3,0.1,0.5,0.2c0.1,0.1,0.2,0.2,0.4,0.2c0.2,0,0.4-0.1,0.6-0.2c0,0,0.1-0.1,0.1-0.1
		c0.1,0,0.2-0.1,0.3-0.1c0.2-0.1,0.4-0.1,0.6-0.2c0.2,0,0.4,0,0.5-0.1c0.2,0,0.3-0.1,0.4-0.2c0.1,0,0.1-0.1,0.2-0.1
		c0.2-0.1,0.5-0.3,0.7-0.4c0.2-0.1,0.3-0.1,0.6-0.2c0.2,0,0.4-0.1,0.7-0.2c0.3,0,0.5-0.1,0.8-0.2c0.3-0.1,0.5-0.2,0.8-0.3
		c0.3-0.1,0.6-0.2,0.8-0.3h0c0.1,0,0.2-0.1,0.3-0.1c0,0,0,0,0,0c0.1,0,0.3-0.1,0.6-0.1c0,0,0.1,0,0.1,0c0.1,0,0.2,0,0.3,0
		c0.2,0,0.3-0.1,0.4-0.1c0.1,0,0.2-0.1,0.3-0.1c0.1,0,0.2,0,0.4,0c0.2,0,0.4,0.1,0.6,0.1c0.2,0,0.3,0,0.4-0.1c0,0,0.1,0,0.2,0
		c0.2,0,0.5,0,0.8,0c0.3,0,0.6,0.1,0.8,0.2c0.3,0.1,0.5,0.2,0.7,0.4c0.1,0.1,0.2,0.2,0.3,0.3c0.1,0.1,0.3,0.3,0.4,0.4
		c0.1,0.1,0.2,0.1,0.3,0.2c0,0,0.1,0,0.1,0.1c0.1,0.1,0.1,0.2,0.1,0.2v0c0,0,0,0-0.1,0.1c0,0.1,0,0.2,0,0.4c0.1,0.2,0.2,0.4,0.3,0.6
		c0,0,0,0.1,0.1,0.1c0.1,0.3,0.1,0.5,0.2,0.6c0.1,0.1,0.3,0.1,0.4,0.1c0.2,0,0.3,0,0.6,0c0,0,0,0,0,0c0.2,0,0.4,0,0.5,0.1
		c0.2,0,0.3,0,0.5,0c0.1,0,0.2-0.1,0.3-0.2c0,0,0,0,0,0c0.1-0.1,0.2-0.2,0.4-0.2c0.2,0,0.4,0,0.6,0c0,0,0,0,0,0
		c0.2,0.1,0.4,0.1,0.7,0.1c0.2,0,0.5-0.1,0.6-0.1c0.1-0.1,0.1-0.1,0.1-0.2c0,0,0,0,0,0c0,0,0,0,0-0.1c0-0.1,0.1-0.1,0.3-0.1
		c0.1,0,0.3,0.1,0.6,0.2c0.1,0,0.2,0,0.4,0c0.1,0,0.2,0.1,0.3,0.1c0.1,0.1,0.3,0.3,0.3,0.4c0,0.1-0.2,0.2-0.2,0.2c0,0,0.1,0,0.2,0.1
		c0.1,0.1,0.1,0.2,0.1,0.2c0.1,0,0.2-0.1,0.3-0.2c0.1,0,0.3,0.1,0.5,0.2c0.1,0.1,0.3,0.1,0.4,0.3c0.1,0.1,0.1,0.3,0.2,0.5
		c0.1,0.2,0.2,0.3,0.2,0.5c0,0.2,0,0.5,0.1,0.7c0,0.2,0,0.4,0,0.6c0,0.2-0.2,0.4-0.2,0.7c0,0,0,0-0.1,0c-0.1,0-0.1,0.2-0.2,0.3
		c0,0.1,0,0.3,0,0.4c0,0.1,0,0.2-0.1,0.3c-0.1,0.1-0.1,0.2-0.2,0.3c0,0-0.1,0.1-0.1,0.1c-0.1,0.1-0.2,0.3-0.2,0.5
		c0,0.1,0.1,0.2,0.2,0.4c0,0,0,0.1,0,0.2c0,0.1,0,0.3,0,0.4c0,0.1-0.1,0.2-0.2,0.2c0,0,0,0,0,0c-0.1,0-0.2,0.1-0.3,0.2
		c-0.1,0.1,0,0.3,0,0.4c0.1,0.1,0.2,0.1,0.4,0.2c0,0,0,0,0,0c0.2,0.1,0.3,0.2,0.4,0.2c0.1,0,0,0.1-0.1,0.1h0c-0.1,0-0.2,0-0.3,0
		c-0.1,0-0.3,0-0.4,0.1c-0.1,0.1-0.1,0.2-0.2,0.4c0,0.1,0,0.1,0,0.2c0,0.1,0,0.2-0.1,0.3c0,0.1-0.1,0.2-0.2,0.3c0,0,0,0,0,0
		c0,0-0.1,0-0.1,0.1c-0.1,0.1-0.1,0.1-0.2,0.2c-0.1,0.1-0.2,0.1-0.2,0.2c0,0.1,0,0.2,0.1,0.3c0.1,0.1,0.1,0.2,0.1,0.4c0,0,0,0,0,0
		c0,0,0,0.1,0,0.1c0,0.1-0.1,0.2,0,0.2c0,0.1,0.1,0.2,0.3,0.2c0.1,0,0.2,0,0.3,0c0,0,0.1,0,0.1,0c0.1,0,0.2,0,0.3,0.1c0,0,0,0,0,0.1
		c0,0-0.1,0.1-0.2,0.1c0,0-0.1,0-0.1,0c-0.1,0-0.2,0-0.2,0.1c0,0,0,0.1,0,0.1c0,0,0,0,0,0c0,0,0,0,0.1,0.1c0,0,0.1,0,0.1,0.1
		c0,0,0.1,0,0.1,0c0.1,0,0.1,0.1,0.1,0.1c0,0-0.1,0-0.1,0c0,0,0,0-0.1,0c0,0-0.1,0-0.1,0c0,0,0,0,0,0.1c0,0.1,0.1,0.2,0.2,0.3
		c0,0,0.1,0.1,0.1,0.1c0.1,0.1,0.2,0.1,0.3,0.2c0.1,0,0.1,0.1,0.2,0.1c0.1,0,0.1,0,0.2,0c0.2,0,0.3,0.1,0.4,0.1c0.1,0,0.1,0.1,0,0.1
		c0,0,0,0-0.1,0c0,0-0.1,0-0.1,0c-0.1,0-0.2,0.1-0.2,0.1c0,0.1,0,0.2,0.4,0.5c0.1,0.1,0.3,0.2,0.5,0.4c0.2,0.1,0.3,0.3,0.5,0.4
		c0.4,0.3,0.9,0.8,1.1,1c0,0,0,0,0,0c0.1,0.1,0.1,0.1,0.2,0.2c0,0,0,0,0.1,0.1c0.1,0.1,0.2,0.3,0.4,0.4c0.1,0.2,0.3,0.4,0.4,0.6
		c0.1,0.1,0.1,0.2,0.1,0.3c0,0.1,0.1,0.2,0.1,0.3c0.1,0.2,0.2,0.3,0.3,0.3c0,0,0,0.1,0.1,0.1c0.1,0.1,0.2,0.3,0.3,0.5
		c0,0.1,0,0.2,0,0.3c0,0.1,0.1,0.3,0.2,0.4c0,0,0.1,0.1,0.1,0.1l0,0c0,0.1,0.1,0.3,0.1,0.5c-0.1,0-0.2,0.1-0.2,0.3
		c0,0.2,0.2,0.6,0.4,0.9c0.1,0.2,0.2,0.3,0.3,0.5c0.2,0.6,0.4,1,0.6,1.5c0.2,0.5,0.4,1.1,0.5,1.5c0.1,0.4,0,0.6-0.1,0.7
		c0,0.1-0.1,0.1-0.1,0.1c0,0,0,0-0.1,0c-0.2,0.1-0.3,0.2-0.3,0.3c0,0.1,0,0.2,0.3,0.5c0,0.1,0.1,0.1,0.1,0.2c0,0,0,0.1,0,0.1
		c0.2,0.6,0.6,1.5,0.8,2.2c0.2,0.7,0.3,1.3,0.3,1.7c0,0.4,0,0.6-0.1,0.9c-0.1,0.3-0.3,0.5-0.6,0.8c-0.1,0.1-0.1,0.1-0.2,0.2
		c0,0,0,0-0.1,0c-0.1,0-0.3,0.1-0.4,0.2c-0.1,0.1-0.2,0.3-0.3,0.6c0,0,0,0.1,0,0.1c0,0,0,0.1,0,0.1c-0.1,0.2-0.2,0.3-0.3,0.4
		c0,0,0,0,0,0c0,0-0.1,0-0.1,0c-0.1,0-0.3,0.1-0.3,0.4c-0.1,0.2-0.1,0.6-0.2,1c0,0.2,0,0.3-0.1,0.5c-0.1,0.4-0.1,0.7-0.2,1
		c0,0.1-0.1,0.2-0.1,0.2c-0.1,0.1-0.1,0.2-0.2,0.3c-0.1,0.1-0.1,0.3-0.1,0.4c-0.1,0.2-0.2,0.4-0.3,0.6c-0.1,0.1-0.1,0.3-0.2,0.4
		c-0.1,0.2-0.2,0.2-0.3,0.4c0,0.1,0,0.3,0,0.4c0,0,0,0.1,0,0.1c0,0.3,0.1,0.7,0.1,1.1c0,0.2,0,0.4,0,0.5c0,0.1,0,0.2-0.1,0.3
		c0,0.2,0,0.5,0,0.8c0,0.3,0.1,0.5,0.2,0.9c0.1,0.3,0.3,0.7,0.4,0.9c0.1,0.2,0.2,0.3,0.4,0.5c0,0,0,0,0,0c0.2,0.3,0.4,0.6,0.7,1.1
		c0.3,0.5,0.6,1.2,0.8,1.8c0,0.1,0.1,0.2,0.1,0.2c0.1,0.3,0.2,0.6,0.3,0.8c0.1,0.2,0.2,0.3,0.3,0.4c0.1,0.1,0.2,0.3,0.3,0.5
		c0.1,0.1,0.2,0.3,0.3,0.5c0.1,0.1,0.1,0.3,0.2,0.4c0.1,0.1,0.2,0.2,0.3,0.3c0.1,0.1,0.2,0.3,0.3,0.4c0.2,0.2,0.3,0.5,0.4,0.8
		c0.1,0.4,0.1,0.8,0.1,1.3c0,0.2,0,0.5,0,0.7c0,0,0,0.1,0,0.1c0,0.3-0.1,0.6,0,0.9c0,0.2,0.1,0.4,0.2,0.6c0,0.1,0,0.1,0,0.2
		c0,0.1,0,0.2,0.1,0.4v0.1c0,0.1,0,0.3,0.1,0.4c0,0,0.1,0.1,0.1,0.1c0.1,0.2,0.2,0.4,0.2,0.7c0,0.1,0,0.3,0,0.4c0,0.2,0,0.5,0,0.7
		c0,0.2,0.1,0.4,0.2,0.5c0,0,0,0.1,0,0.1c0,0.1,0,0.2,0,0.3c0,0,0,0.1,0,0.1c0,0.1,0,0.2,0.1,0.2c0.1,0.1,0.2,0.1,0.2,0.2
		c0,0,0,0,0,0c0.1,0.1,0.1,0.2,0,0.3v0c-0.1,0.1-0.1,0.2-0.1,0.4c0,0.1,0.1,0.2,0.1,0.4c0,0.1,0.1,0.3,0.1,0.4c0,0,0,0.1,0,0.1
		c0,0,0,0.1,0,0.1c0,0.2,0,0.3,0.1,0.5c0,0.1,0.1,0.1,0.2,0.2c0,0,0,0,0,0c0.1,0.1,0.2,0.3,0.5,0.5c0,0,0,0,0,0
		c0.2,0.2,0.3,0.5,0.6,0.8c0.2,0.2,0.5,0.4,0.7,0.7c0.2,0.2,0.3,0.5,0.5,0.8c0.1,0.2,0.3,0.4,0.4,0.6c0,0.1,0,0.1,0.1,0.2
		c0.1,0.2,0.1,0.4,0.2,0.7c0,0,0,0.1,0,0.2c0,0.2,0.1,0.5,0.2,0.7c0,0.2,0.1,0.3,0.2,0.5c0.1,0.3,0.3,0.6,0.5,1c0,0,0,0,0,0.1
		c0.1,0.2,0.2,0.4,0.3,0.6c0.2,0.3,0.4,0.7,0.6,0.9c0,0,0.1,0.1,0.1,0.1c0.1,0.1,0.2,0.2,0.2,0.3c0.1,0.2,0.2,0.3,0.2,0.5
		c0,0.1,0,0.1,0,0.2v0c0,0,0,0,0,0c0,0.2,0,0.4,0,0.6c0,0.3,0,0.5-0.1,0.7c-0.1,0.1-0.2,0.2-0.3,0.2c0,0,0,0,0,0c-0.1,0-0.1,0-0.2,0
		c-0.1,0-0.2,0.1-0.2,0.2c0,0.1,0.1,0.3,0.2,0.6c0.1,0.2,0.2,0.5,0.3,0.7c0,0.1,0.1,0.2,0.1,0.3c0.1,0.3,0.2,0.4,0.2,0.6
		c0,0,0,0.1,0,0.1c0,0.1-0.1,0.3-0.1,0.4c0,0.1,0.1,0.2,0.3,0.2c0.1,0,0.1-0.1,0.2-0.1c0,0,0.1,0,0.1,0c0.1,0,0.1,0,0.2,0.1
		c0,0,0,0.1,0.1,0.1c0,0.1,0,0.2,0,0.2c0,0.1,0.1,0.2,0.2,0.2c0,0,0.1,0,0.1,0c0,0,0.1,0,0.2,0.1c0.1,0.1,0.3,0.2,0.5,0.3
		c0,0,0,0.1,0.1,0.1c0.2,0.2,0.3,0.3,0.5,0.4c0.2,0.1,0.4,0.1,0.6,0.1c0.2,0,0.3-0.2,0.5-0.3c0.1,0,0.1-0.1,0.2-0.1
		c0.2-0.1,0.5-0.3,0.9-0.4c0.2-0.1,0.5-0.1,0.8-0.2c0.3,0,0.6-0.1,0.8-0.1c0.3-0.1,0.6-0.1,0.7-0.2c0.1-0.1,0.2-0.2,0.2-0.2
		c0,0,0.1-0.1,0.1-0.1c0.1-0.1,0.2-0.1,0.3-0.1c0.1,0,0.2,0,0.3,0c0.2,0,0.5,0,0.7,0c0.2,0,0.4,0,0.6-0.1c0,0,0.1,0,0.1,0
		c0.2,0,0.4,0,0.7,0c0.1,0,0.3,0,0.4,0c0.2,0.1,0.5,0.2,0.7,0.2c0.3,0.1,0.6,0.2,0.8,0.1c0.1,0,0.3-0.1,0.4-0.1c0.1,0,0.1,0,0.2-0.1
		c0.2,0,0.3,0,0.5-0.1c0.2,0,0.4,0,0.5,0c0.1,0,0.2-0.1,0.2-0.2c0,0,0,0,0,0c0,0,0.1,0,0.1,0c0.2-0.1,0.4-0.2,0.8-0.2c0,0,0,0,0,0
		c0.1,0,0.1,0,0.2,0c0.4-0.1,1-0.2,1.4-0.4c0.5-0.2,0.9-0.4,1.1-0.7c0.2-0.2,0.3-0.3,0.4-0.5c0.1-0.1,0.2-0.3,0.3-0.4
		c0.1-0.1,0.3-0.2,0.5-0.3c0.1,0,0.2-0.1,0.4-0.1c0.3-0.1,0.6-0.4,0.9-0.7c0.2-0.3,0.4-0.6,0.6-1c0.2-0.3,0.6-0.7,0.8-0.9
		c0,0,0,0,0.1,0c0.1-0.1,0.3-0.1,0.4-0.2c0.2-0.1,0.3-0.1,0.4-0.1c0.1,0,0.3,0,0.3-0.1c0.1-0.1,0.1-0.2,0.1-0.3c0,0,0,0,0,0
		c0,0,0,0,0,0c0-0.2,0.1-0.4,0.2-0.6c0-0.1,0.1-0.1,0.1-0.2c0,0,0,0,0,0c0,0,0-0.1,0.1-0.1c0-0.1,0.1-0.1,0.1-0.2
		c0.1-0.2,0.3-0.5,0.5-0.7c0,0,0.1-0.1,0.1-0.1c0.1-0.2,0.3-0.4,0.3-0.6c0-0.1,0-0.2,0.1-0.2c0-0.1,0-0.1,0.1-0.1
		c0.1-0.2,0.1-0.2,0.3-0.4c0.1-0.1,0.2-0.1,0.3-0.2c0.1-0.1,0.3-0.2,0.4-0.3c0,0,0.1-0.1,0.1-0.1c0,0,0,0,0.1-0.1
		c0.1-0.1,0.2-0.3,0.4-0.4c0.1-0.1,0.3-0.2,0.5-0.3c0.1,0,0.2-0.1,0.3-0.2c0.2-0.1,0.4-0.3,0.5-0.5c0.1-0.2,0.1-0.4,0.2-0.7
		c0.1-0.2,0.1-0.4,0.2-0.6c0.1-0.3,0.3-0.7,0.4-0.9c0-0.1,0-0.1,0.1-0.1c0.1-0.1,0.1-0.2,0.1-0.3c0.1-0.1,0.1-0.3,0.1-0.4
		c0-0.1-0.1-0.2-0.1-0.3c0-0.1,0-0.1,0-0.2c0-0.1,0-0.2,0.1-0.3c0,0,0-0.1,0-0.1c0-0.1,0-0.2-0.1-0.3c0,0-0.1,0-0.1,0
		c-0.1,0-0.2-0.1-0.2-0.1c-0.1-0.1-0.2-0.1-0.2-0.2c0-0.1-0.1-0.2-0.1-0.3c0,0,0-0.1,0-0.1c0-0.1,0-0.2,0-0.3c0,0,0,0,0,0
		c0.1-0.1,0.2-0.2,0.3-0.4c0.2-0.2,0.4-0.4,0.6-0.5c0.2-0.1,0.3-0.2,0.5-0.3c0.2-0.1,0.6-0.1,0.9-0.2c0.3-0.1,0.7-0.1,1-0.2
		c0.3-0.1,0.6-0.2,0.8-0.3c0.3-0.1,0.5-0.2,0.7-0.3c0.2-0.1,0.3-0.3,0.4-0.4c0.1-0.1,0.2-0.3,0.3-0.4c0.1-0.1,0.1-0.3,0.1-0.4
		c0-0.1-0.1-0.2-0.1-0.3c0-0.1,0-0.2,0.1-0.4c0.1-0.2,0.2-0.5,0.3-0.7c0.1-0.2,0.1-0.3,0.1-0.5c0-0.2,0-0.4,0-0.6s0-0.4,0-0.6
		c0-0.1-0.1-0.2-0.1-0.2c-0.1,0-0.1,0-0.2-0.2c0-0.2-0.1-0.6-0.1-0.9c0-0.3-0.1-0.4-0.1-0.7c0-0.2-0.1-0.5-0.1-0.7
		c-0.1-0.2-0.1-0.3-0.2-0.5c-0.1-0.1-0.1-0.3-0.2-0.4c-0.1-0.1-0.2-0.2-0.3-0.3c-0.1-0.1-0.1-0.2-0.1-0.4c0-0.2,0.1-0.5,0.2-0.7
		c0.1-0.2,0.2-0.3,0.3-0.4s0.2-0.3,0.3-0.4c0.1-0.1,0.3-0.2,0.4-0.3c0.2-0.1,0.3-0.2,0.5-0.3c0.1-0.1,0.2-0.3,0.4-0.4
		c0.2-0.1,0.4-0.3,0.5-0.4c0.1-0.1,0.2-0.1,0.4-0.3c0.1-0.1,0.3-0.4,0.5-0.6c0.2-0.2,0.4-0.3,0.6-0.5c0.1-0.1,0.2-0.2,0.3-0.4
		c0.1-0.2,0.4-0.5,0.6-0.7c0.2-0.2,0.4-0.3,0.9-0.5c0.5-0.2,1.2-0.4,1.8-0.6c0.5-0.2,0.8-0.4,1-0.5c0.3-0.1,0.5-0.2,0.7-0.3
		c0.2-0.1,0.4-0.1,0.4-0.2c0.1-0.1,0.1-0.2,0.1-0.3c0-0.1,0-0.3,0.1-0.4c0,0,0.1-0.1,0.1-0.1c0.1,0,0.2-0.1,0.3-0.2
		c0.1-0.1,0.1-0.1,0.1-0.2c0.1-0.1,0.3-0.3,0.4-0.5c0.2-0.2,0.3-0.3,0.4-0.5c0.1-0.2,0.2-0.4,0.3-0.7c0.1-0.2,0.1-0.4,0.1-0.7
		c0-0.3-0.1-0.5-0.1-0.8c0-0.2,0-0.4,0-0.6s-0.1-0.4-0.1-0.6c0-0.2,0-0.4,0-0.6c0-0.2,0.1-0.3,0.1-0.4c0-0.1,0-0.2,0-0.4
		c0-0.1-0.1-0.3-0.1-0.4c0-0.1,0-0.2,0.1-0.4c0.1-0.1,0.1-0.2,0.1-0.4c0-0.1-0.2-0.3-0.2-0.5c-0.1-0.2,0-0.3,0-0.5
		c0-0.2,0-0.5,0-0.6c0-0.2-0.1-0.2-0.1-0.3c0-0.1-0.1-0.2-0.1-0.3c0-0.1,0-0.2,0.1-0.3c0.1-0.1,0.2-0.3,0.2-0.5
		c0.1-0.2,0.1-0.4,0-0.5c0,0,0,0,0-0.1c0-0.1-0.1-0.2-0.2-0.3c-0.1-0.1-0.2-0.3-0.3-0.4c-0.1-0.1-0.2-0.1-0.3-0.1
		c-0.1,0-0.2-0.1-0.3-0.2c-0.1-0.1-0.3-0.1-0.4-0.2c0,0,0,0,0,0c-0.2-0.1-0.2-0.3-0.2-0.5c0-0.1,0.1-0.3,0.1-0.4
		c0-0.2-0.1-0.4-0.2-0.6c0-0.1-0.1-0.2-0.2-0.3c-0.1-0.2-0.2-0.3-0.2-0.6c-0.1-0.2-0.1-0.6-0.1-0.9c0-0.1,0-0.2,0-0.2
		c0-0.1,0.1-0.2,0.1-0.3c0-0.1,0-0.3,0-0.4c0-0.1-0.1-0.1-0.1-0.2c0-0.1,0-0.2,0-0.4c0-0.1,0.1-0.3,0.1-0.4c0,0,0,0,0,0
		c0.1-0.1,0.2-0.2,0.2-0.4c0-0.1,0-0.2,0-0.3c-0.1-0.1-0.2-0.2-0.3-0.3c-0.1-0.1-0.2-0.1-0.2-0.2c0,0-0.1-0.1-0.1-0.1
		c-0.1-0.1-0.1-0.1-0.2-0.2c0,0,0,0,0,0c-0.2-0.2-0.3-0.3-0.4-0.5c-0.1-0.2-0.1-0.5-0.1-0.9c0-0.4,0.2-0.8,0.3-1.2
		c0.1-0.4,0.3-0.8,0.5-1c0.1-0.1,0.1-0.2,0.2-0.3c0.1-0.1,0.2-0.2,0.3-0.4c0.2-0.2,0.3-0.5,0.4-0.7c0.1-0.2,0.1-0.4,0.2-0.6
		c0-0.2,0.1-0.3,0.2-0.5c0.1-0.1,0.2-0.2,0.3-0.3c0.1-0.1,0.1-0.2,0.2-0.4c0-0.1,0-0.2,0-0.3c0-0.1,0-0.1,0.1-0.2
		c0.1-0.1,0.2-0.1,0.4-0.2c0.2-0.1,0.3-0.1,0.4-0.2c0.1-0.1,0.2-0.2,0.3-0.3c0.1-0.1,0.2-0.3,0.4-0.5c0.2-0.2,0.5-0.4,0.7-0.6
		c0.2-0.2,0.2-0.3,0.3-0.4c0,0,0.1,0,0.1-0.1c0.1,0,0.1-0.1,0.2-0.1c0.2-0.1,0.4-0.4,0.5-0.6c0.1-0.1,0.1-0.2,0.1-0.3
		c0.1-0.2,0.3-0.4,0.4-0.6c0.3-0.4,0.6-0.7,0.9-1c0.1-0.1,0.3-0.3,0.4-0.4c0,0,0.1-0.1,0.1-0.1c0.2-0.2,0.4-0.4,0.7-0.7
		c0.1-0.1,0.2-0.2,0.4-0.3c0.1,0,0.1-0.1,0.2-0.1c0.2-0.1,0.3-0.3,0.5-0.4c0.1-0.1,0.3-0.3,0.4-0.4c0,0,0.1-0.1,0.1-0.1
		c0.2-0.1,0.3-0.3,0.5-0.4c0.1-0.1,0.2-0.1,0.3-0.2c0.1,0,0.1-0.1,0.2-0.1c0,0,0.1,0,0.1-0.1c0.3-0.2,0.6-0.4,1.1-0.6
		c0.1,0,0.1-0.1,0.2-0.1c0.2-0.1,0.3-0.1,0.5-0.2c0.2-0.1,0.5-0.2,0.7-0.4c0.3-0.2,0.6-0.6,1-1.1c0,0,0-0.1,0.1-0.1
		c0.2-0.2,0.4-0.4,0.6-0.7c0.3-0.3,0.6-0.7,0.9-1c0.1-0.1,0.2-0.2,0.3-0.3c0.2-0.2,0.4-0.4,0.6-0.7c0.2-0.2,0.3-0.5,0.5-0.7
		c0.1-0.2,0.2-0.4,0.3-0.5c0.1-0.1,0.1-0.2,0.2-0.3c0.1-0.1,0.2-0.2,0.2-0.3c0.1-0.1,0.1-0.2,0.2-0.3c0.2-0.3,0.5-0.8,0.7-1.1
		c0.1-0.2,0.1-0.4,0.2-0.5c0-0.1,0.1-0.2,0.1-0.3c0.1-0.3,0.4-0.7,0.5-1c0,0,0-0.1,0.1-0.1c0.1-0.1,0.1-0.2,0.2-0.2
		c0.1-0.1,0.1-0.3,0.1-0.3c0-0.1,0.1-0.1,0.1-0.2c0-0.1,0-0.2,0-0.4c0-0.2,0.1-0.3,0.2-0.5c0,0,0-0.1,0.1-0.1
		c0.1-0.1,0.2-0.1,0.2-0.2c0.1-0.1,0.3-0.3,0.5-0.7c0.2-0.4,0.5-1.2,0.6-1.6c0.1-0.4,0.2-0.6,0.2-0.8c0-0.1,0-0.2,0-0.3
		c0.1-0.3,0.1-0.5,0.2-0.7c0.1-0.2,0.1-0.3,0.2-0.5c0.1-0.3,0-0.6,0-0.8C570.4,296.2,570.4,296,570.4,295.8"/>
</g>
<path class="st2" d="M82.7,280.5l-20-52.2l-20.4,52.2H82.7z M21.2,313.3l36.7-92.7h9.8l37,92.7h-9.1l-9.9-25H39.5l-9.8,25H21.2z"/>
<g>
	<path class="st2" d="M115,313.3v-57.4h-13v-7.1h13v-13.7c0-11,4.5-16,15.5-16c2.4,0,5,0.9,7.3,1.4v6.2c-1.5-0.3-3.2-0.5-4.7-0.5
		c-10.5,0-10.8,5.3-10.4,14.5v8.2h14.6v7.1h-14.6v57.4H115z"/>
	<path class="st2" d="M153.5,313.3h-7.7v-49.9c0.1-5-0.4-10.1-0.6-14.5h8l0.4,9.5h0.3c2.3-6.5,8.1-11.2,14.5-11.4
		c2.6-0.1,5.1,0,7.7,0.1v7.4c-1.5-0.1-3.2-0.5-4.8-0.5c-11.4,0-17.5,8.2-17.7,20.5V313.3z"/>
</g>
<path class="st2" d="M190,313.3h-7.7v-64.4h7.7V313.3z M190.6,230.2h-9v-9.6h9V230.2z"/>
<g>
	<path class="st2" d="M244.9,268.6c-0.6-9.9-6.9-14.6-17.6-14.6c-11.8,0-19.1,12.3-19.1,27c0,14.8,7.3,27.2,19.1,27.2
		c10,0,16.9-6.2,17.6-15h8.3c-2.1,14.8-10.5,22.1-25.2,22.1c-19.3,0-28.2-16.6-28.2-34.1c0-17.5,9.6-34.1,28.8-34.1
		c13.2,0,24,8,24.6,21.7H244.9z"/>
	<path class="st2" d="M279.2,308.1c16.8,0,20-13.9,19.3-27.3c-10.9,0.4-33.8-1.7-33.8,14.5C264.7,304,271.4,308.1,279.2,308.1
		 M298.4,267.8c-0.8-10.5-6.2-13.9-15.3-13.9c-8.1,0-14.8,2.4-15.8,11.2h-8.2c1.9-13.2,11.8-18.2,24.1-18.2
		c14.2,0,23.1,6.5,22.9,21.3v30.6c-0.1,5,0.4,10.1,0.6,14.5h-8l-0.3-9.5h-0.3l-0.4,0.9c-2.8,5.4-11.4,10.5-20.2,10.5
		c-11.9,0-21.4-7.3-21.4-19.9c0-8.7,5.3-15.4,13-18.6c8.6-3.7,19.8-2.4,29.1-2.9V267.8z"/>
	<path class="st2" d="M327.4,313.3h-7.7v-49.9c0-5-0.4-10.1-0.6-14.5h8l0.4,9.5l0.3,0.3c4.5-8,11.8-11.7,20.2-11.7
		c21.1,0,22.7,18.6,22.7,26.1v40.3h-7.7v-41.6c0-11.2-6.4-17.7-16.9-17.7c-12.7,0-18.5,10.7-18.5,22.2V313.3z"/>
	<path class="st2" d="M92,330.1v59.9c0.6,16.8,10.3,27,25.5,27s24.9-10.1,25.5-27v-59.9h8.3v60.1c-0.3,19.9-11.4,34.5-33.9,34.5
		S84,410.1,83.7,390.2v-60.1H92z"/>
	<path class="st2" d="M175.5,422.8h-7.7v-49.9c0-5-0.4-10.1-0.6-14.5h8l0.4,9.5l0.3,0.3c4.5-8,11.8-11.7,20.2-11.7
		c21.1,0,22.7,18.6,22.7,26.1v40.3h-7.7v-41.6c0-11.2-6.4-17.7-16.9-17.7c-12.7,0-18.5,10.7-18.5,22.2V422.8z"/>
</g>
<path class="st2" d="M240.5,422.8h-7.7v-64.4h7.7V422.8z M241.2,339.8h-9v-9.6h9V339.8z"/>
<g>
	<path class="st2" d="M280.2,363.5c-15.5,0-21.7,15.1-21.7,27.1c0,11.9,6.2,27.1,21.7,27.1s21.7-15.1,21.7-27.1
		C301.9,378.7,295.7,363.5,280.2,363.5 M310.3,390.6c0,16.9-9.5,34.1-30,34.1c-20.5,0-30-17.2-30-34.1c0-16.9,9.5-34.1,30-34.1
		C300.8,356.4,310.3,373.6,310.3,390.6"/>
	<path class="st2" d="M327.4,422.8h-7.7v-49.9c0-5-0.4-10.1-0.6-14.5h8l0.4,9.5l0.3,0.3c4.5-8,11.8-11.7,20.2-11.7
		c21.1,0,22.7,18.6,22.7,26.1v40.3h-7.7v-41.6c0-11.2-6.4-17.7-16.9-17.7c-12.7,0-18.5,10.7-18.5,22.2V422.8z"/>
</g>
<polygon class="st2" points="587,418.4 585.9,418.4 585.9,418.1 588.5,418.1 588.5,418.4 587.4,418.4 587.4,421.5 587,421.5 "/>
<g>
	<path class="st2" d="M591.8,420c0-0.5-0.1-1.1,0-1.5h0c-0.1,0.4-0.3,0.8-0.4,1.3l-0.6,1.7h-0.3l-0.6-1.6c-0.2-0.5-0.3-0.9-0.4-1.3
		h0c0,0.4,0,1-0.1,1.5l-0.1,1.5h-0.4l0.2-3.5h0.6l0.6,1.7c0.1,0.4,0.3,0.8,0.3,1.2h0c0.1-0.3,0.2-0.7,0.4-1.2l0.6-1.7h0.6l0.2,3.5
		h-0.4L591.8,420z"/>
	<path class="st2" d="M589.3,415.4c-2.5,0-4.6,2.1-4.6,4.6c0,2.5,2.1,4.6,4.6,4.6s4.6-2.1,4.6-4.6
		C593.8,417.5,591.8,415.4,589.3,415.4 M589.3,425.1c-2.8,0-5.1-2.3-5.1-5.1c0-2.8,2.3-5.1,5.1-5.1c2.8,0,5.1,2.3,5.1,5.1
		C594.3,422.8,592,425.1,589.3,425.1"/>
</g>
</svg>
